<?xml version="1.0" encoding="UTF-8" standalone="no"?>
<!-- Created with Inkscape (http://www.inkscape.org/) -->

<svg
   xmlns:dc="http://purl.org/dc/elements/1.1/"
   xmlns:cc="http://creativecommons.org/ns#"
   xmlns:rdf="http://www.w3.org/1999/02/22-rdf-syntax-ns#"
   xmlns:svg="http://www.w3.org/2000/svg"
   xmlns="http://www.w3.org/2000/svg"
   xmlns:sodipodi="http://sodipodi.sourceforge.net/DTD/sodipodi-0.dtd"
   xmlns:inkscape="http://www.inkscape.org/namespaces/inkscape"
   width="309.77969"
   height="309.77966"
   id="svg2"
   version="1.1"
   inkscape:version="0.48.3.1 r9886"
   sodipodi:docname="dpdx1.svg">
  <defs
     id="defs4">
    <filter
       inkscape:collect="always"
       id="filter7460"
       x="-0.24"
       width="1.48"
       y="-0.24"
       height="1.48">
      <feGaussianBlur
         inkscape:collect="always"
         stdDeviation="0.74446383"
         id="feGaussianBlur7462" />
    </filter>
    <filter
       inkscape:collect="always"
       id="filter7468"
       x="-0.24"
       width="1.48"
       y="-0.24"
       height="1.48">
      <feGaussianBlur
         inkscape:collect="always"
         stdDeviation="0.74446383"
         id="feGaussianBlur7470" />
    </filter>
    <filter
       inkscape:collect="always"
       id="filter8896"
       x="-0.24"
       width="1.48"
       y="-0.24"
       height="1.48">
      <feGaussianBlur
         inkscape:collect="always"
         stdDeviation="0.74446383"
         id="feGaussianBlur8898" />
    </filter>
    <filter
       inkscape:collect="always"
       id="filter8937"
       x="-0.24"
       width="1.48"
       y="-0.24"
       height="1.48">
      <feGaussianBlur
         inkscape:collect="always"
         stdDeviation="0.74446383"
         id="feGaussianBlur8939" />
    </filter>
  </defs>
  <sodipodi:namedview
     id="base"
     pagecolor="#ffffff"
     bordercolor="#666666"
     borderopacity="1.0"
     inkscape:pageopacity="0.0"
     inkscape:pageshadow="2"
     inkscape:zoom="2.4178476"
     inkscape:cx="70.310491"
     inkscape:cy="154.88983"
     inkscape:document-units="px"
     inkscape:current-layer="layer1"
     showgrid="false"
     inkscape:window-width="1855"
     inkscape:window-height="1056"
     inkscape:window-x="65"
     inkscape:window-y="24"
     inkscape:window-maximized="1"
     fit-margin-top="0"
     fit-margin-left="0"
     fit-margin-right="0"
     fit-margin-bottom="0" />
  <metadata
     id="metadata7">
    <rdf:RDF>
      <cc:Work
         rdf:about="">
        <dc:format>image/svg+xml</dc:format>
        <dc:type
           rdf:resource="http://purl.org/dc/dcmitype/StillImage" />
        <dc:title></dc:title>
      </cc:Work>
    </rdf:RDF>
  </metadata>
  <g
     inkscape:label="Layer 1"
     inkscape:groupmode="layer"
     id="layer1"
     transform="translate(-156.18727,-99.141339)">
    <rect
       style="fill:none;stroke:#000000;stroke-width:1.5;stroke-linecap:butt;stroke-linejoin:miter;stroke-miterlimit:4;stroke-opacity:1;stroke-dasharray:none"
       id="rect4099"
       width="307.32532"
       height="307.32532"
       x="157.22472"
       y="100.059" />
    <path
       style="fill:none;stroke:#000000;stroke-width:1.5;stroke-linecap:butt;stroke-linejoin:miter;stroke-miterlimit:4;stroke-opacity:1;stroke-dasharray:none"
       d="m 310.88736,99.891339 0,308.279671"
       id="path4873"
       inkscape:connector-curvature="0" />
    <path
       inkscape:connector-curvature="0"
       id="path4883"
       d="m 156.93727,253.72166 308.27968,0"
       style="fill:#0000ff;stroke:#000000;stroke-width:1.50000000000000000;stroke-linecap:butt;stroke-linejoin:miter;stroke-miterlimit:4;stroke-opacity:1;stroke-dasharray:none" />
    <path
       style="fill:none;stroke:#000000;stroke-width:1px;stroke-linecap:butt;stroke-linejoin:miter;stroke-opacity:1"
       d="m 387.41544,100.37386 0,153.74394"
       id="path4907"
       inkscape:connector-curvature="0" />
    <path
       inkscape:connector-curvature="0"
       id="path4921"
       d="m 310.54347,176.69806 153.74394,0"
       style="fill:#0000ff;stroke:#000000;stroke-width:1px;stroke-linecap:butt;stroke-linejoin:miter;stroke-opacity:1" />
    <path
       inkscape:connector-curvature="0"
       id="path4927"
       d="m 233.8109,253.35611 0,153.74394"
       style="fill:none;stroke:#000000;stroke-width:1px;stroke-linecap:butt;stroke-linejoin:miter;stroke-opacity:1" />
    <text
       xml:space="preserve"
       style="font-size:16px;font-style:normal;font-variant:normal;font-weight:normal;font-stretch:normal;line-height:125%;letter-spacing:0px;word-spacing:0px;fill:#000000;fill-opacity:1;stroke:none;font-family:Arial;-inkscape-font-specification:Arial"
       x="95.317375"
       y="245.53432"
       id="text5094"
       sodipodi:linespacing="125%"><tspan
         sodipodi:role="line"
         id="tspan5096"
         x="95.317375"
         y="245.53432" /></text>
    <text
       xml:space="preserve"
       style="font-size:10px;font-style:normal;font-variant:normal;font-weight:normal;font-stretch:normal;line-height:125%;letter-spacing:0px;word-spacing:0px;fill:#000000;fill-opacity:1;stroke:none;font-family:Arial;-inkscape-font-specification:Arial"
       x="133.18642"
       y="717.52026"
       id="text5270"
       sodipodi:linespacing="125%"><tspan
         sodipodi:role="line"
         id="tspan5272"
         x="133.18642"
         y="717.52026" /></text>
    <path
       style="fill:#0000ff;stroke:#000000;stroke-width:1px;stroke-linecap:butt;stroke-linejoin:miter;stroke-opacity:1"
       d="m 156.72254,330.22808 153.74394,0"
       id="path3068"
       inkscape:connector-curvature="0" />
    <path
       inkscape:connector-curvature="0"
       id="path3838"
       d="m 233.7654,100.14691 0,153.74394"
       style="fill:none;stroke:#000000;stroke-width:1px;stroke-linecap:butt;stroke-linejoin:miter;stroke-opacity:1" />
    <path
       style="fill:#0000ff;stroke:#000000;stroke-width:1px;stroke-linecap:butt;stroke-linejoin:miter;stroke-opacity:1"
       d="m 157.15456,176.62544 153.74394,0"
       id="path3840"
       inkscape:connector-curvature="0" />
    <path
       style="fill:none;stroke:#000000;stroke-width:1px;stroke-linecap:butt;stroke-linejoin:miter;stroke-opacity:1"
       d="m 194.73365,100.14691 0,153.74394"
       id="path3842"
       inkscape:connector-curvature="0" />
    <path
       inkscape:connector-curvature="0"
       id="path3844"
       d="m 271.66158,100.14691 0,153.74394"
       style="fill:none;stroke:#000000;stroke-width:1px;stroke-linecap:butt;stroke-linejoin:miter;stroke-opacity:1" />
    <path
       inkscape:connector-curvature="0"
       id="path3846"
       d="m 157.15456,138.26486 153.74394,0"
       style="fill:#0000ff;stroke:#000000;stroke-width:1px;stroke-linecap:butt;stroke-linejoin:miter;stroke-opacity:1" />
    <path
       style="fill:#0000ff;stroke:#000000;stroke-width:1px;stroke-linecap:butt;stroke-linejoin:miter;stroke-opacity:1"
       d="m 157.15456,214.986 153.74394,0"
       id="path3848"
       inkscape:connector-curvature="0" />
    <path
       transform="matrix(1.0555556,0,0,1.0555556,-6.426331,-2.42409)"
       d="m 194.38777,115.80548 a 3.7223191,3.7223191 0 1 1 -7.44464,0 3.7223191,3.7223191 0 1 1 7.44464,0 z"
       sodipodi:ry="3.7223191"
       sodipodi:rx="3.7223191"
       sodipodi:cy="115.80548"
       sodipodi:cx="190.66545"
       id="path3910-4"
       style="fill:#0000ff;fill-opacity:1;fill-rule:evenodd;stroke:none"
       sodipodi:type="arc" />
    <path
       transform="matrix(1.0555556,0,0,1.0555556,70.125548,-2.834198)"
       d="m 194.38777,115.80548 a 3.7223191,3.7223191 0 1 1 -7.44464,0 3.7223191,3.7223191 0 1 1 7.44464,0 z"
       sodipodi:ry="3.7223191"
       sodipodi:rx="3.7223191"
       sodipodi:cy="115.80548"
       sodipodi:cx="190.66545"
       id="path3910-4-9"
       style="fill:#0000ff;fill-opacity:1;fill-rule:evenodd;stroke:none"
       sodipodi:type="arc" />
    <path
       transform="matrix(1.0555556,0,0,1.0555556,70.461754,34.497702)"
       d="m 194.38777,115.80548 a 3.7223191,3.7223191 0 1 1 -7.44464,0 3.7223191,3.7223191 0 1 1 7.44464,0 z"
       sodipodi:ry="3.7223191"
       sodipodi:rx="3.7223191"
       sodipodi:cy="115.80548"
       sodipodi:cx="190.66545"
       id="path3910-4-7"
       style="fill:#0000ff;fill-opacity:1;fill-rule:evenodd;stroke:none"
       sodipodi:type="arc" />
    <path
       transform="matrix(1.0555556,0,0,1.0555556,32.445361,169.49037)"
       d="m 194.38777,115.80548 a 3.7223191,3.7223191 0 1 1 -7.44464,0 3.7223191,3.7223191 0 1 1 7.44464,0 z"
       sodipodi:ry="3.7223191"
       sodipodi:rx="3.7223191"
       sodipodi:cy="115.80548"
       sodipodi:cx="190.66545"
       id="path3910-4-7-6"
       style="fill:#0000ff;fill-opacity:1;fill-rule:evenodd;stroke:none"
       sodipodi:type="arc" />
    <path
       transform="matrix(1.0555556,0,0,1.0555556,186.09973,169.84187)"
       d="m 194.38777,115.80548 a 3.7223191,3.7223191 0 1 1 -7.44464,0 3.7223191,3.7223191 0 1 1 7.44464,0 z"
       sodipodi:ry="3.7223191"
       sodipodi:rx="3.7223191"
       sodipodi:cy="115.80548"
       sodipodi:cx="190.66545"
       id="path3910-4-7-6-6"
       style="fill:none;stroke:#0000ff;stroke-opacity:1;filter:url(#filter7468)"
       sodipodi:type="arc" />
    <g
       transform="translate(407.23701,83.900567)"
       style="font-size:20px;font-style:normal;font-weight:bold;line-height:125%;letter-spacing:0px;word-spacing:0px;fill:#0000ff;fill-opacity:1;stroke:none;font-family:Bitstream Vera Sans;-inkscape-font-specification:Sans Bold"
       id="text8317">
      <path
         d="m -175.88231,35.349812 -3.94531,-5.341797 3.70117,0 2.23633,3.242187 2.26562,-3.242187 3.70118,0 -3.94532,5.322265 4.14063,5.615235 -3.70117,0 -2.46094,-3.457032 -2.43164,3.457032 -3.70117,0 4.14062,-5.595703"
         id="path8322"
         inkscape:connector-curvature="0" />
    </g>
    <path
       transform="matrix(1.0555556,0,0,1.0555556,146.95035,34.039873)"
       d="m 194.38777,115.80548 a 3.7223191,3.7223191 0 1 1 -7.44464,0 3.7223191,3.7223191 0 1 1 7.44464,0 z"
       sodipodi:ry="3.7223191"
       sodipodi:rx="3.7223191"
       sodipodi:cy="115.80548"
       sodipodi:cx="190.66545"
       id="path3910-4-7-1"
       style="fill:none;fill-opacity:1;fill-rule:evenodd;stroke:#0000ff;stroke-opacity:1;filter:url(#filter8896)"
       sodipodi:type="arc" />
    <g
       transform="translate(484.50912,122.27618)"
       style="font-size:20px;font-style:normal;font-weight:bold;line-height:125%;letter-spacing:0px;word-spacing:0px;fill:#0000ff;fill-opacity:1;stroke:none;font-family:Bitstream Vera Sans;-inkscape-font-specification:Sans Bold"
       id="text8317-1">
      <path
         d="m -175.88231,35.349812 -3.94531,-5.341797 3.70117,0 2.23633,3.242187 2.26562,-3.242187 3.70118,0 -3.94532,5.322265 4.14063,5.615235 -3.70117,0 -2.46094,-3.457032 -2.43164,3.457032 -3.70117,0 4.14062,-5.595703"
         id="path8322-5"
         inkscape:connector-curvature="0" />
    </g>
    <g
       transform="translate(484.67782,256.87605)"
       style="font-size:20px;font-style:normal;font-weight:bold;line-height:125%;letter-spacing:0px;word-spacing:0px;fill:#0000ff;fill-opacity:1;stroke:none;font-family:Bitstream Vera Sans;-inkscape-font-specification:Sans Bold"
       id="text8317-1-4">
      <path
         d="m -175.88231,35.349812 -3.94531,-5.341797 3.70117,0 2.23633,3.242187 2.26562,-3.242187 3.70118,0 -3.94532,5.322265 4.14063,5.615235 -3.70117,0 -2.46094,-3.457032 -2.43164,3.457032 -3.70117,0 4.14062,-5.595703"
         id="path8322-5-4"
         inkscape:connector-curvature="0" />
    </g>
    <path
       transform="matrix(1.0555556,0,0,1.0555556,109.60518,92.241352)"
       d="m 194.38777,115.80548 a 3.7223191,3.7223191 0 1 1 -7.44464,0 3.7223191,3.7223191 0 1 1 7.44464,0 z"
       sodipodi:ry="3.7223191"
       sodipodi:rx="3.7223191"
       sodipodi:cy="115.80548"
       sodipodi:cx="190.66545"
       id="path3910-4-7-6-67"
       style="fill:none;fill-opacity:1;fill-rule:evenodd;stroke:#0000ff;stroke-opacity:1;filter:url(#filter8937)"
       sodipodi:type="arc" />
    <path
       transform="matrix(1.0555556,0,0,1.0555556,263.25955,92.592852)"
       d="m 194.38777,115.80548 a 3.7223191,3.7223191 0 1 1 -7.44464,0 3.7223191,3.7223191 0 1 1 7.44464,0 z"
       sodipodi:ry="3.7223191"
       sodipodi:rx="3.7223191"
       sodipodi:cy="115.80548"
       sodipodi:cx="190.66545"
       id="path3910-4-7-6-6-5"
       style="fill:#0000ff;stroke:none;stroke-opacity:1;fill-opacity:1"
       sodipodi:type="arc" />
    <g
       transform="translate(561.42405,179.21345)"
       style="font-size:20px;font-style:normal;font-weight:bold;line-height:125%;letter-spacing:0px;word-spacing:0px;fill:#0000ff;fill-opacity:1;stroke:none;font-family:Bitstream Vera Sans;-inkscape-font-specification:Sans Bold"
       id="text8317-1-4-6">
      <path
         d="m -175.88231,35.349812 -3.94531,-5.341797 3.70117,0 2.23633,3.242187 2.26562,-3.242187 3.70118,0 -3.94532,5.322265 4.14063,5.615235 -3.70117,0 -2.46094,-3.457032 -2.43164,3.457032 -3.70117,0 4.14062,-5.595703"
         id="path8322-5-4-4"
         inkscape:connector-curvature="0" />
    </g>
  </g>
</svg>
