<?xml version="1.0" encoding="UTF-8" standalone="no"?>
<!-- Created with Inkscape (http://www.inkscape.org/) -->

<svg
   xmlns:dc="http://purl.org/dc/elements/1.1/"
   xmlns:cc="http://creativecommons.org/ns#"
   xmlns:rdf="http://www.w3.org/1999/02/22-rdf-syntax-ns#"
   xmlns:svg="http://www.w3.org/2000/svg"
   xmlns="http://www.w3.org/2000/svg"
   xmlns:sodipodi="http://sodipodi.sourceforge.net/DTD/sodipodi-0.dtd"
   xmlns:inkscape="http://www.inkscape.org/namespaces/inkscape"
   width="309.77969"
   height="309.77966"
   id="svg2"
   version="1.1"
   inkscape:version="0.48.3.1 r9886"
   sodipodi:docname="malha_deslocada.svg">
  <defs
     id="defs4" />
  <sodipodi:namedview
     id="base"
     pagecolor="#ffffff"
     bordercolor="#666666"
     borderopacity="1.0"
     inkscape:pageopacity="0.0"
     inkscape:pageshadow="2"
     inkscape:zoom="2.4178476"
     inkscape:cx="145.6049"
     inkscape:cy="154.88983"
     inkscape:document-units="px"
     inkscape:current-layer="layer1"
     showgrid="false"
     inkscape:window-width="1855"
     inkscape:window-height="1056"
     inkscape:window-x="65"
     inkscape:window-y="24"
     inkscape:window-maximized="1"
     fit-margin-top="0"
     fit-margin-left="0"
     fit-margin-right="0"
     fit-margin-bottom="0" />
  <metadata
     id="metadata7">
    <rdf:RDF>
      <cc:Work
         rdf:about="">
        <dc:format>image/svg+xml</dc:format>
        <dc:type
           rdf:resource="http://purl.org/dc/dcmitype/StillImage" />
        <dc:title />
      </cc:Work>
    </rdf:RDF>
  </metadata>
  <g
     inkscape:label="Layer 1"
     inkscape:groupmode="layer"
     id="layer1"
     transform="translate(-156.18727,-99.141339)">
    <rect
       style="fill:none;stroke:#000000;stroke-width:1.5;stroke-linecap:butt;stroke-linejoin:miter;stroke-miterlimit:4;stroke-opacity:1;stroke-dasharray:none"
       id="rect4099"
       width="307.32532"
       height="307.32532"
       x="157.22472"
       y="100.059" />
    <path
       style="fill:none;stroke:#000000;stroke-width:1.5;stroke-linecap:butt;stroke-linejoin:miter;stroke-miterlimit:4;stroke-opacity:1;stroke-dasharray:none"
       d="m 310.88736,99.891339 0,308.279671"
       id="path4873"
       inkscape:connector-curvature="0" />
    <path
       inkscape:connector-curvature="0"
       id="path4883"
       d="m 156.93727,253.72166 308.27968,0"
       style="fill:none;stroke:#000000;stroke-width:1.5;stroke-linecap:butt;stroke-linejoin:miter;stroke-miterlimit:4;stroke-opacity:1;stroke-dasharray:none" />
    <path
       style="fill:none;stroke:#000000;stroke-width:1px;stroke-linecap:butt;stroke-linejoin:miter;stroke-opacity:1"
       d="m 387.41544,100.37386 0,153.74394"
       id="path4907"
       inkscape:connector-curvature="0" />
    <path
       inkscape:connector-curvature="0"
       id="path4921"
       d="m 310.54347,176.69806 153.74394,0"
       style="fill:none;stroke:#000000;stroke-width:1px;stroke-linecap:butt;stroke-linejoin:miter;stroke-opacity:1" />
    <path
       inkscape:connector-curvature="0"
       id="path4927"
       d="m 233.8109,253.35611 0,153.74394"
       style="fill:none;stroke:#000000;stroke-width:1px;stroke-linecap:butt;stroke-linejoin:miter;stroke-opacity:1" />
    <text
       xml:space="preserve"
       style="font-size:16px;font-style:normal;font-variant:normal;font-weight:normal;font-stretch:normal;line-height:125%;letter-spacing:0px;word-spacing:0px;fill:#000000;fill-opacity:1;stroke:none;font-family:Arial;-inkscape-font-specification:Arial"
       x="95.317375"
       y="245.53432"
       id="text5094"
       sodipodi:linespacing="125%"><tspan
         sodipodi:role="line"
         id="tspan5096"
         x="95.317375"
         y="245.53432" /></text>
    <text
       xml:space="preserve"
       style="font-size:10px;font-style:normal;font-variant:normal;font-weight:normal;font-stretch:normal;line-height:125%;letter-spacing:0px;word-spacing:0px;fill:#000000;fill-opacity:1;stroke:none;font-family:Arial;-inkscape-font-specification:Arial"
       x="133.18642"
       y="717.52026"
       id="text5270"
       sodipodi:linespacing="125%"><tspan
         sodipodi:role="line"
         id="tspan5272"
         x="133.18642"
         y="717.52026" /></text>
    <path
       style="fill:none;stroke:#000000;stroke-width:1px;stroke-linecap:butt;stroke-linejoin:miter;stroke-opacity:1"
       d="m 156.72254,330.22808 153.74394,0"
       id="path3068"
       inkscape:connector-curvature="0" />
    <path
       inkscape:connector-curvature="0"
       id="path3838"
       d="m 233.7654,100.14691 0,153.74394"
       style="fill:none;stroke:#000000;stroke-width:1px;stroke-linecap:butt;stroke-linejoin:miter;stroke-opacity:1" />
    <path
       style="fill:none;stroke:#000000;stroke-width:1px;stroke-linecap:butt;stroke-linejoin:miter;stroke-opacity:1"
       d="m 157.15456,176.62544 153.74394,0"
       id="path3840"
       inkscape:connector-curvature="0" />
    <path
       style="fill:none;stroke:#000000;stroke-width:1px;stroke-linecap:butt;stroke-linejoin:miter;stroke-opacity:1"
       d="m 194.73365,100.14691 0,153.74394"
       id="path3842"
       inkscape:connector-curvature="0" />
    <path
       inkscape:connector-curvature="0"
       id="path3844"
       d="m 271.66158,100.14691 0,153.74394"
       style="fill:none;stroke:#000000;stroke-width:1px;stroke-linecap:butt;stroke-linejoin:miter;stroke-opacity:1" />
    <path
       inkscape:connector-curvature="0"
       id="path3846"
       d="m 157.15456,138.26486 153.74394,0"
       style="fill:none;stroke:#000000;stroke-width:1px;stroke-linecap:butt;stroke-linejoin:miter;stroke-opacity:1" />
    <path
       style="fill:none;stroke:#000000;stroke-width:1px;stroke-linecap:butt;stroke-linejoin:miter;stroke-opacity:1"
       d="m 157.15456,214.986 153.74394,0"
       id="path3848"
       inkscape:connector-curvature="0" />
    <path
       transform="matrix(1.0555556,0,0,1.0555556,186.19755,208.09958)"
       d="m 194.38777,115.80548 c 0,2.05578 -1.66654,3.72232 -3.72232,3.72232 -2.05578,0 -3.72232,-1.66654 -3.72232,-3.72232 0,-2.05578 1.66654,-3.72232 3.72232,-3.72232 2.05578,0 3.72232,1.66654 3.72232,3.72232 z"
       sodipodi:ry="3.7223191"
       sodipodi:rx="3.7223191"
       sodipodi:cy="115.80548"
       sodipodi:cx="190.66545"
       id="path3860"
       style="fill:#ff0000;fill-opacity:1;fill-rule:evenodd;stroke:none"
       sodipodi:type="arc" />
    <path
       sodipodi:type="arc"
       style="fill:#ff0000;fill-opacity:1;fill-rule:evenodd;stroke:none"
       id="path3862"
       sodipodi:cx="190.66545"
       sodipodi:cy="115.80548"
       sodipodi:rx="3.7223191"
       sodipodi:ry="3.7223191"
       d="m 194.38777,115.80548 c 0,2.05578 -1.66654,3.72232 -3.72232,3.72232 -2.05578,0 -3.72232,-1.66654 -3.72232,-3.72232 0,-2.05578 1.66654,-3.72232 3.72232,-3.72232 2.05578,0 3.72232,1.66654 3.72232,3.72232 z"
       transform="matrix(1.0555556,0,0,1.0555556,224.66151,15.986554)" />
    <path
       transform="matrix(1.0555556,0,0,1.0555556,70.941581,169.42881)"
       d="m 194.38777,115.80548 c 0,2.05578 -1.66654,3.72232 -3.72232,3.72232 -2.05578,0 -3.72232,-1.66654 -3.72232,-3.72232 0,-2.05578 1.66654,-3.72232 3.72232,-3.72232 2.05578,0 3.72232,1.66654 3.72232,3.72232 z"
       sodipodi:ry="3.7223191"
       sodipodi:rx="3.7223191"
       sodipodi:cy="115.80548"
       sodipodi:cx="190.66545"
       id="path3864"
       style="fill:#ff0000;fill-opacity:1;fill-rule:evenodd;stroke:none"
       sodipodi:type="arc" />
    <path
       sodipodi:type="arc"
       style="fill:#ff0000;fill-opacity:1;fill-rule:evenodd;stroke:none"
       id="path3866"
       sodipodi:cx="190.66545"
       sodipodi:cy="115.80548"
       sodipodi:rx="3.7223191"
       sodipodi:ry="3.7223191"
       d="m 194.38777,115.80548 c 0,2.05578 -1.66654,3.72232 -3.72232,3.72232 -2.05578,0 -3.72232,-1.66654 -3.72232,-3.72232 0,-2.05578 1.66654,-3.72232 3.72232,-3.72232 2.05578,0 3.72232,1.66654 3.72232,3.72232 z"
       transform="matrix(1.0555556,0,0,1.0555556,-6.3999409,169.42881)" />
    <path
       transform="matrix(1.0555556,0,0,1.0555556,-5.708672,246.35674)"
       d="m 194.38777,115.80548 c 0,2.05578 -1.66654,3.72232 -3.72232,3.72232 -2.05578,0 -3.72232,-1.66654 -3.72232,-3.72232 0,-2.05578 1.66654,-3.72232 3.72232,-3.72232 2.05578,0 3.72232,1.66654 3.72232,3.72232 z"
       sodipodi:ry="3.7223191"
       sodipodi:rx="3.7223191"
       sodipodi:cy="115.80548"
       sodipodi:cx="190.66545"
       id="path3868"
       style="fill:#ff0000;fill-opacity:1;fill-rule:evenodd;stroke:none"
       sodipodi:type="arc" />
    <path
       sodipodi:type="arc"
       style="fill:#ff0000;fill-opacity:1;fill-rule:evenodd;stroke:none"
       id="path3870"
       sodipodi:cx="190.66545"
       sodipodi:cy="115.80548"
       sodipodi:rx="3.7223191"
       sodipodi:ry="3.7223191"
       d="m 194.38777,115.80548 c 0,2.05578 -1.66654,3.72232 -3.72232,3.72232 -2.05578,0 -3.72232,-1.66654 -3.72232,-3.72232 0,-2.05578 1.66654,-3.72232 3.72232,-3.72232 2.05578,0 3.72232,1.66654 3.72232,3.72232 z"
       transform="matrix(1.0555556,0,0,1.0555556,70.392067,246.35674)" />
    <path
       sodipodi:type="arc"
       style="fill:#ff0000;fill-opacity:1;fill-rule:evenodd;stroke:none"
       id="path3884"
       sodipodi:cx="190.66545"
       sodipodi:cy="115.80548"
       sodipodi:rx="3.7223191"
       sodipodi:ry="3.7223191"
       d="m 194.38777,115.80548 c 0,2.05578 -1.66654,3.72232 -3.72232,3.72232 -2.05578,0 -3.72232,-1.66654 -3.72232,-3.72232 0,-2.05578 1.66654,-3.72232 3.72232,-3.72232 2.05578,0 3.72232,1.66654 3.72232,3.72232 z"
       transform="matrix(1.0555556,0,0,1.0555556,89.553173,111.93966)" />
    <path
       sodipodi:type="arc"
       style="fill:#ff0000;fill-opacity:1;fill-rule:evenodd;stroke:none"
       id="path3888"
       sodipodi:cx="190.66545"
       sodipodi:cy="115.80548"
       sodipodi:rx="3.7223191"
       sodipodi:ry="3.7223191"
       d="m 194.38777,115.80548 c 0,2.05578 -1.66654,3.72232 -3.72232,3.72232 -2.05578,0 -3.72232,-1.66654 -3.72232,-3.72232 0,-2.05578 1.66654,-3.72232 3.72232,-3.72232 2.05578,0 3.72232,1.66654 3.72232,3.72232 z"
       transform="matrix(1.0555556,0,0,1.0555556,51.502788,73.062115)" />
    <path
       transform="matrix(1.0555556,0,0,1.0555556,51.502788,112.35325)"
       d="m 194.38777,115.80548 c 0,2.05578 -1.66654,3.72232 -3.72232,3.72232 -2.05578,0 -3.72232,-1.66654 -3.72232,-3.72232 0,-2.05578 1.66654,-3.72232 3.72232,-3.72232 2.05578,0 3.72232,1.66654 3.72232,3.72232 z"
       sodipodi:ry="3.7223191"
       sodipodi:rx="3.7223191"
       sodipodi:cy="115.80548"
       sodipodi:cx="190.66545"
       id="path3890"
       style="fill:#ff0000;fill-opacity:1;fill-rule:evenodd;stroke:none"
       sodipodi:type="arc" />
    <path
       sodipodi:type="arc"
       style="fill:#ff0000;fill-opacity:1;fill-rule:evenodd;stroke:none"
       id="path3892"
       sodipodi:cx="190.66545"
       sodipodi:cy="115.80548"
       sodipodi:rx="3.7223191"
       sodipodi:ry="3.7223191"
       d="m 194.38777,115.80548 c 0,2.05578 -1.66654,3.72232 -3.72232,3.72232 -2.05578,0 -3.72232,-1.66654 -3.72232,-3.72232 0,-2.05578 1.66654,-3.72232 3.72232,-3.72232 2.05578,0 3.72232,1.66654 3.72232,3.72232 z"
       transform="matrix(1.0555556,0,0,1.0555556,13.038829,111.52607)" />
    <path
       transform="matrix(1.0555556,0,0,1.0555556,13.038829,73.475705)"
       d="m 194.38777,115.80548 c 0,2.05578 -1.66654,3.72232 -3.72232,3.72232 -2.05578,0 -3.72232,-1.66654 -3.72232,-3.72232 0,-2.05578 1.66654,-3.72232 3.72232,-3.72232 2.05578,0 3.72232,1.66654 3.72232,3.72232 z"
       sodipodi:ry="3.7223191"
       sodipodi:rx="3.7223191"
       sodipodi:cy="115.80548"
       sodipodi:cx="190.66545"
       id="path3894"
       style="fill:#ff0000;fill-opacity:1;fill-rule:evenodd;stroke:none"
       sodipodi:type="arc" />
    <path
       sodipodi:type="arc"
       style="fill:#ff0000;fill-opacity:1;fill-rule:evenodd;stroke:none"
       id="path3896"
       sodipodi:cx="190.66545"
       sodipodi:cy="115.80548"
       sodipodi:rx="3.7223191"
       sodipodi:ry="3.7223191"
       d="m 194.38777,115.80548 c 0,2.05578 -1.66654,3.72232 -3.72232,3.72232 -2.05578,0 -3.72232,-1.66654 -3.72232,-3.72232 0,-2.05578 1.66654,-3.72232 3.72232,-3.72232 2.05578,0 3.72232,1.66654 3.72232,3.72232 z"
       transform="matrix(1.0555556,0,0,1.0555556,12.625231,35.01175)" />
    <path
       transform="matrix(1.0555556,0,0,1.0555556,51.502773,35.011746)"
       d="m 194.38777,115.80548 c 0,2.05578 -1.66654,3.72232 -3.72232,3.72232 -2.05578,0 -3.72232,-1.66654 -3.72232,-3.72232 0,-2.05578 1.66654,-3.72232 3.72232,-3.72232 2.05578,0 3.72232,1.66654 3.72232,3.72232 z"
       sodipodi:ry="3.7223191"
       sodipodi:rx="3.7223191"
       sodipodi:cy="115.80548"
       sodipodi:cx="190.66545"
       id="path3898"
       style="fill:#ff0000;fill-opacity:1;fill-rule:evenodd;stroke:none"
       sodipodi:type="arc" />
    <path
       sodipodi:type="arc"
       style="fill:#ff0000;fill-opacity:1;fill-rule:evenodd;stroke:none"
       id="path3900"
       sodipodi:cx="190.66545"
       sodipodi:cy="115.80548"
       sodipodi:rx="3.7223191"
       sodipodi:ry="3.7223191"
       d="m 194.38777,115.80548 c 0,2.05578 -1.66654,3.72232 -3.72232,3.72232 -2.05578,0 -3.72232,-1.66654 -3.72232,-3.72232 0,-2.05578 1.66654,-3.72232 3.72232,-3.72232 2.05578,0 3.72232,1.66654 3.72232,3.72232 z"
       transform="matrix(1.0555556,0,0,1.0555556,89.966747,35.011746)" />
    <path
       transform="matrix(1.0555556,0,0,1.0555556,12.625231,-2.2032033)"
       d="m 194.38777,115.80548 c 0,2.05578 -1.66654,3.72232 -3.72232,3.72232 -2.05578,0 -3.72232,-1.66654 -3.72232,-3.72232 0,-2.05578 1.66654,-3.72232 3.72232,-3.72232 2.05578,0 3.72232,1.66654 3.72232,3.72232 z"
       sodipodi:ry="3.7223191"
       sodipodi:rx="3.7223191"
       sodipodi:cy="115.80548"
       sodipodi:cx="190.66545"
       id="path3910"
       style="fill:#ff0000;fill-opacity:1;fill-rule:evenodd;stroke:none"
       sodipodi:type="arc" />
    <path
       sodipodi:type="arc"
       style="fill:#ff0000;fill-opacity:1;fill-rule:evenodd;stroke:none"
       id="path3912"
       sodipodi:cx="190.66545"
       sodipodi:cy="115.80548"
       sodipodi:rx="3.7223191"
       sodipodi:ry="3.7223191"
       d="m 194.38777,115.80548 c 0,2.05578 -1.66654,3.72232 -3.72232,3.72232 -2.05578,0 -3.72232,-1.66654 -3.72232,-3.72232 0,-2.05578 1.66654,-3.72232 3.72232,-3.72232 2.05578,0 3.72232,1.66654 3.72232,3.72232 z"
       transform="matrix(1.0555556,0,0,1.0555556,51.502773,-2.2032073)" />
    <path
       transform="matrix(1.0555556,0,0,1.0555556,89.966747,-2.2032073)"
       d="m 194.38777,115.80548 c 0,2.05578 -1.66654,3.72232 -3.72232,3.72232 -2.05578,0 -3.72232,-1.66654 -3.72232,-3.72232 0,-2.05578 1.66654,-3.72232 3.72232,-3.72232 2.05578,0 3.72232,1.66654 3.72232,3.72232 z"
       sodipodi:ry="3.7223191"
       sodipodi:rx="3.7223191"
       sodipodi:cy="115.80548"
       sodipodi:cx="190.66545"
       id="path3914"
       style="fill:#ff0000;fill-opacity:1;fill-rule:evenodd;stroke:none"
       sodipodi:type="arc" />
    <path
       transform="matrix(1.0555556,0,0,1.0555556,-25.142746,111.52607)"
       d="m 194.38777,115.80548 c 0,2.05578 -1.66654,3.72232 -3.72232,3.72232 -2.05578,0 -3.72232,-1.66654 -3.72232,-3.72232 0,-2.05578 1.66654,-3.72232 3.72232,-3.72232 2.05578,0 3.72232,1.66654 3.72232,3.72232 z"
       sodipodi:ry="3.7223191"
       sodipodi:rx="3.7223191"
       sodipodi:cy="115.80548"
       sodipodi:cx="190.66545"
       id="path3916"
       style="fill:#ff0000;fill-opacity:1;fill-rule:evenodd;stroke:none"
       sodipodi:type="arc" />
    <path
       sodipodi:type="arc"
       style="fill:#ff0000;fill-opacity:1;fill-rule:evenodd;stroke:none"
       id="path3918"
       sodipodi:cx="190.66545"
       sodipodi:cy="115.80548"
       sodipodi:rx="3.7223191"
       sodipodi:ry="3.7223191"
       d="m 194.38777,115.80548 c 0,2.05578 -1.66654,3.72232 -3.72232,3.72232 -2.05578,0 -3.72232,-1.66654 -3.72232,-3.72232 0,-2.05578 1.66654,-3.72232 3.72232,-3.72232 2.05578,0 3.72232,1.66654 3.72232,3.72232 z"
       transform="matrix(1.0555556,0,0,1.0555556,-25.142746,73.475705)" />
    <path
       transform="matrix(1.0555556,0,0,1.0555556,-25.556344,35.01175)"
       d="m 194.38777,115.80548 c 0,2.05578 -1.66654,3.72232 -3.72232,3.72232 -2.05578,0 -3.72232,-1.66654 -3.72232,-3.72232 0,-2.05578 1.66654,-3.72232 3.72232,-3.72232 2.05578,0 3.72232,1.66654 3.72232,3.72232 z"
       sodipodi:ry="3.7223191"
       sodipodi:rx="3.7223191"
       sodipodi:cy="115.80548"
       sodipodi:cx="190.66545"
       id="path3920"
       style="fill:#ff0000;fill-opacity:1;fill-rule:evenodd;stroke:none"
       sodipodi:type="arc" />
    <path
       sodipodi:type="arc"
       style="fill:#ff0000;fill-opacity:1;fill-rule:evenodd;stroke:none"
       id="path3922"
       sodipodi:cx="190.66545"
       sodipodi:cy="115.80548"
       sodipodi:rx="3.7223191"
       sodipodi:ry="3.7223191"
       d="m 194.38777,115.80548 c 0,2.05578 -1.66654,3.72232 -3.72232,3.72232 -2.05578,0 -3.72232,-1.66654 -3.72232,-3.72232 0,-2.05578 1.66654,-3.72232 3.72232,-3.72232 2.05578,0 3.72232,1.66654 3.72232,3.72232 z"
       transform="matrix(1.0555556,0,0,1.0555556,-25.556344,-2.2032033)" />
    <path
       sodipodi:type="arc"
       style="fill:#ff0000;fill-opacity:1;fill-rule:evenodd;stroke:none"
       id="path3862-0"
       sodipodi:cx="190.66545"
       sodipodi:cy="115.80548"
       sodipodi:rx="3.7223191"
       sodipodi:ry="3.7223191"
       d="m 194.38777,115.80548 a 3.7223191,3.7223191 0 1 1 -7.44464,0 3.7223191,3.7223191 0 1 1 7.44464,0 z"
       transform="matrix(1.0555556,0,0,1.0555556,149.31705,16.606957)" />
    <path
       sodipodi:type="arc"
       style="fill:#ff0000;fill-opacity:1;fill-rule:evenodd;stroke:none"
       id="path3862-4"
       sodipodi:cx="190.66545"
       sodipodi:cy="115.80548"
       sodipodi:rx="3.7223191"
       sodipodi:ry="3.7223191"
       d="m 194.38777,115.80548 a 3.7223191,3.7223191 0 1 1 -7.44464,0 3.7223191,3.7223191 0 1 1 7.44464,0 z"
       transform="matrix(1.0555556,0,0,1.0555556,148.97141,92.430019)" />
    <path
       sodipodi:type="arc"
       style="fill:#ff0000;fill-opacity:1;fill-rule:evenodd;stroke:none"
       id="path3862-8"
       sodipodi:cx="190.66545"
       sodipodi:cy="115.80548"
       sodipodi:rx="3.7223191"
       sodipodi:ry="3.7223191"
       d="m 194.38777,115.80548 c 0,2.05578 -1.66654,3.72232 -3.72232,3.72232 -2.05578,0 -3.72232,-1.66654 -3.72232,-3.72232 0,-2.05578 1.66654,-3.72232 3.72232,-3.72232 2.05578,0 3.72232,1.66654 3.72232,3.72232 z"
       transform="matrix(1.0555556,0,0,1.0555556,225.00421,92.294109)" />
    <path
       sodipodi:type="arc"
       style="fill:#ff0000;fill-opacity:1;fill-rule:evenodd;stroke:none"
       id="path3862-9"
       sodipodi:cx="190.66545"
       sodipodi:cy="115.80548"
       sodipodi:rx="3.7223191"
       sodipodi:ry="3.7223191"
       d="m 194.38777,115.80548 a 3.7223191,3.7223191 0 1 1 -7.44464,0 3.7223191,3.7223191 0 1 1 7.44464,0 z"
       transform="matrix(1.0555556,0,0,1.0555556,89.75995,72.855333)" />
    <path
       transform="matrix(1.0555556,0,0,1.0555556,262.26761,207.12916)"
       d="m 194.38777,115.80548 c 0,2.05578 -1.66654,3.72232 -3.72232,3.72232 -2.05578,0 -3.72232,-1.66654 -3.72232,-3.72232 0,-2.05578 1.66654,-3.72232 3.72232,-3.72232 2.05578,0 3.72232,1.66654 3.72232,3.72232 z"
       sodipodi:ry="3.7223191"
       sodipodi:rx="3.7223191"
       sodipodi:cy="115.80548"
       sodipodi:cx="190.66545"
       id="path3860-1"
       style="fill:#0000ff;fill-opacity:1;fill-rule:evenodd;stroke:none"
       sodipodi:type="arc" />
    <path
       sodipodi:type="arc"
       style="fill:#0000ff;fill-opacity:1;fill-rule:evenodd;stroke:none"
       id="path3862-2"
       sodipodi:cx="190.66545"
       sodipodi:cy="115.80548"
       sodipodi:rx="3.7223191"
       sodipodi:ry="3.7223191"
       d="m 194.38777,115.80548 c 0,2.05578 -1.66654,3.72232 -3.72232,3.72232 -2.05578,0 -3.72232,-1.66654 -3.72232,-3.72232 0,-2.05578 1.66654,-3.72232 3.72232,-3.72232 2.05578,0 3.72232,1.66654 3.72232,3.72232 z"
       transform="matrix(1.0555556,0,0,1.0555556,262.73157,15.016132)" />
    <path
       transform="matrix(1.0555556,0,0,1.0555556,110.25241,168.45839)"
       d="m 194.38777,115.80548 c 0,2.05578 -1.66654,3.72232 -3.72232,3.72232 -2.05578,0 -3.72232,-1.66654 -3.72232,-3.72232 0,-2.05578 1.66654,-3.72232 3.72232,-3.72232 2.05578,0 3.72232,1.66654 3.72232,3.72232 z"
       sodipodi:ry="3.7223191"
       sodipodi:rx="3.7223191"
       sodipodi:cy="115.80548"
       sodipodi:cx="190.66545"
       id="path3864-5"
       style="fill:#0000ff;fill-opacity:1;fill-rule:evenodd;stroke:none"
       sodipodi:type="arc" />
    <path
       sodipodi:type="arc"
       style="fill:#0000ff;fill-opacity:1;fill-rule:evenodd;stroke:none"
       id="path3866-3"
       sodipodi:cx="190.66545"
       sodipodi:cy="115.80548"
       sodipodi:rx="3.7223191"
       sodipodi:ry="3.7223191"
       d="m 194.38777,115.80548 c 0,2.05578 -1.66654,3.72232 -3.72232,3.72232 -2.05578,0 -3.72232,-1.66654 -3.72232,-3.72232 0,-2.05578 1.66654,-3.72232 3.72232,-3.72232 2.05578,0 3.72232,1.66654 3.72232,3.72232 z"
       transform="matrix(1.0555556,0,0,1.0555556,32.56525,168.45839)" />
    <path
       transform="matrix(1.0555556,0,0,1.0555556,33.25652,245.38632)"
       d="m 194.38777,115.80548 c 0,2.05578 -1.66654,3.72232 -3.72232,3.72232 -2.05578,0 -3.72232,-1.66654 -3.72232,-3.72232 0,-2.05578 1.66654,-3.72232 3.72232,-3.72232 2.05578,0 3.72232,1.66654 3.72232,3.72232 z"
       sodipodi:ry="3.7223191"
       sodipodi:rx="3.7223191"
       sodipodi:cy="115.80548"
       sodipodi:cx="190.66545"
       id="path3868-1"
       style="fill:#0000ff;fill-opacity:1;fill-rule:evenodd;stroke:none"
       sodipodi:type="arc" />
    <path
       sodipodi:type="arc"
       style="fill:#0000ff;fill-opacity:1;fill-rule:evenodd;stroke:none"
       id="path3870-8"
       sodipodi:cx="190.66545"
       sodipodi:cy="115.80548"
       sodipodi:rx="3.7223191"
       sodipodi:ry="3.7223191"
       d="m 194.38777,115.80548 c 0,2.05578 -1.66654,3.72232 -3.72232,3.72232 -2.05578,0 -3.72232,-1.66654 -3.72232,-3.72232 0,-2.05578 1.66654,-3.72232 3.72232,-3.72232 2.05578,0 3.72232,1.66654 3.72232,3.72232 z"
       transform="matrix(1.0555556,0,0,1.0555556,109.7029,245.38632)" />
    <path
       sodipodi:type="arc"
       style="fill:#0000ff;fill-opacity:1;fill-rule:evenodd;stroke:none"
       id="path3884-2"
       sodipodi:cx="190.66545"
       sodipodi:cy="115.80548"
       sodipodi:rx="3.7223191"
       sodipodi:ry="3.7223191"
       d="m 194.38777,115.80548 c 0,2.05578 -1.66654,3.72232 -3.72232,3.72232 -2.05578,0 -3.72232,-1.66654 -3.72232,-3.72232 0,-2.05578 1.66654,-3.72232 3.72232,-3.72232 2.05578,0 3.72232,1.66654 3.72232,3.72232 z"
       transform="matrix(1.0555556,0,0,1.0555556,109.34554,110.96924)" />
    <path
       sodipodi:type="arc"
       style="fill:#0000ff;fill-opacity:1;fill-rule:evenodd;stroke:none"
       id="path3888-1"
       sodipodi:cx="190.66545"
       sodipodi:cy="115.80548"
       sodipodi:rx="3.7223191"
       sodipodi:ry="3.7223191"
       d="m 194.38777,115.80548 c 0,2.05578 -1.66654,3.72232 -3.72232,3.72232 -2.05578,0 -3.72232,-1.66654 -3.72232,-3.72232 0,-2.05578 1.66654,-3.72232 3.72232,-3.72232 2.05578,0 3.72232,1.66654 3.72232,3.72232 z"
       transform="matrix(1.0555556,0,0,1.0555556,70.88157,72.09169)" />
    <path
       transform="matrix(1.0555556,0,0,1.0555556,70.88157,111.38283)"
       d="m 194.38777,115.80548 c 0,2.05578 -1.66654,3.72232 -3.72232,3.72232 -2.05578,0 -3.72232,-1.66654 -3.72232,-3.72232 0,-2.05578 1.66654,-3.72232 3.72232,-3.72232 2.05578,0 3.72232,1.66654 3.72232,3.72232 z"
       sodipodi:ry="3.7223191"
       sodipodi:rx="3.7223191"
       sodipodi:cy="115.80548"
       sodipodi:cx="190.66545"
       id="path3890-9"
       style="fill:#0000ff;fill-opacity:1;fill-rule:evenodd;stroke:none"
       sodipodi:type="arc" />
    <path
       sodipodi:type="arc"
       style="fill:#0000ff;fill-opacity:1;fill-rule:evenodd;stroke:none"
       id="path3892-6"
       sodipodi:cx="190.66545"
       sodipodi:cy="115.80548"
       sodipodi:rx="3.7223191"
       sodipodi:ry="3.7223191"
       d="m 194.38777,115.80548 c 0,2.05578 -1.66654,3.72232 -3.72232,3.72232 -2.05578,0 -3.72232,-1.66654 -3.72232,-3.72232 0,-2.05578 1.66654,-3.72232 3.72232,-3.72232 2.05578,0 3.72232,1.66654 3.72232,3.72232 z"
       transform="matrix(1.0555556,0,0,1.0555556,32.41761,110.55565)" />
    <path
       transform="matrix(1.0555556,0,0,1.0555556,32.41761,72.50528)"
       d="m 194.38777,115.80548 c 0,2.05578 -1.66654,3.72232 -3.72232,3.72232 -2.05578,0 -3.72232,-1.66654 -3.72232,-3.72232 0,-2.05578 1.66654,-3.72232 3.72232,-3.72232 2.05578,0 3.72232,1.66654 3.72232,3.72232 z"
       sodipodi:ry="3.7223191"
       sodipodi:rx="3.7223191"
       sodipodi:cy="115.80548"
       sodipodi:cx="190.66545"
       id="path3894-1"
       style="fill:#0000ff;fill-opacity:1;fill-rule:evenodd;stroke:none"
       sodipodi:type="arc" />
    <path
       sodipodi:type="arc"
       style="fill:#0000ff;fill-opacity:1;fill-rule:evenodd;stroke:none"
       id="path3896-5"
       sodipodi:cx="190.66545"
       sodipodi:cy="115.80548"
       sodipodi:rx="3.7223191"
       sodipodi:ry="3.7223191"
       d="m 194.38777,115.80548 c 0,2.05578 -1.66654,3.72232 -3.72232,3.72232 -2.05578,0 -3.72232,-1.66654 -3.72232,-3.72232 0,-2.05578 1.66654,-3.72232 3.72232,-3.72232 2.05578,0 3.72232,1.66654 3.72232,3.72232 z"
       transform="matrix(1.0555556,0,0,1.0555556,32.00401,34.041328)" />
    <path
       transform="matrix(1.0555556,0,0,1.0555556,70.88155,34.041324)"
       d="m 194.38777,115.80548 c 0,2.05578 -1.66654,3.72232 -3.72232,3.72232 -2.05578,0 -3.72232,-1.66654 -3.72232,-3.72232 0,-2.05578 1.66654,-3.72232 3.72232,-3.72232 2.05578,0 3.72232,1.66654 3.72232,3.72232 z"
       sodipodi:ry="3.7223191"
       sodipodi:rx="3.7223191"
       sodipodi:cy="115.80548"
       sodipodi:cx="190.66545"
       id="path3898-5"
       style="fill:#0000ff;fill-opacity:1;fill-rule:evenodd;stroke:none"
       sodipodi:type="arc" />
    <path
       sodipodi:type="arc"
       style="fill:#0000ff;fill-opacity:1;fill-rule:evenodd;stroke:none"
       id="path3900-1"
       sodipodi:cx="190.66545"
       sodipodi:cy="115.80548"
       sodipodi:rx="3.7223191"
       sodipodi:ry="3.7223191"
       d="m 194.38777,115.80548 c 0,2.05578 -1.66654,3.72232 -3.72232,3.72232 -2.05578,0 -3.72232,-1.66654 -3.72232,-3.72232 0,-2.05578 1.66654,-3.72232 3.72232,-3.72232 2.05578,0 3.72232,1.66654 3.72232,3.72232 z"
       transform="matrix(1.0555556,0,0,1.0555556,109.34553,34.041324)" />
    <path
       transform="matrix(1.0555556,0,0,1.0555556,32.00401,-3.173622)"
       d="m 194.38777,115.80548 c 0,2.05578 -1.66654,3.72232 -3.72232,3.72232 -2.05578,0 -3.72232,-1.66654 -3.72232,-3.72232 0,-2.05578 1.66654,-3.72232 3.72232,-3.72232 2.05578,0 3.72232,1.66654 3.72232,3.72232 z"
       sodipodi:ry="3.7223191"
       sodipodi:rx="3.7223191"
       sodipodi:cy="115.80548"
       sodipodi:cx="190.66545"
       id="path3910-4"
       style="fill:#0000ff;fill-opacity:1;fill-rule:evenodd;stroke:none"
       sodipodi:type="arc" />
    <path
       sodipodi:type="arc"
       style="fill:#0000ff;fill-opacity:1;fill-rule:evenodd;stroke:none"
       id="path3912-8"
       sodipodi:cx="190.66545"
       sodipodi:cy="115.80548"
       sodipodi:rx="3.7223191"
       sodipodi:ry="3.7223191"
       d="m 194.38777,115.80548 c 0,2.05578 -1.66654,3.72232 -3.72232,3.72232 -2.05578,0 -3.72232,-1.66654 -3.72232,-3.72232 0,-2.05578 1.66654,-3.72232 3.72232,-3.72232 2.05578,0 3.72232,1.66654 3.72232,3.72232 z"
       transform="matrix(1.0555556,0,0,1.0555556,70.88155,-3.173632)" />
    <path
       transform="matrix(1.0555556,0,0,1.0555556,109.34553,-3.173632)"
       d="m 194.38777,115.80548 c 0,2.05578 -1.66654,3.72232 -3.72232,3.72232 -2.05578,0 -3.72232,-1.66654 -3.72232,-3.72232 0,-2.05578 1.66654,-3.72232 3.72232,-3.72232 2.05578,0 3.72232,1.66654 3.72232,3.72232 z"
       sodipodi:ry="3.7223191"
       sodipodi:rx="3.7223191"
       sodipodi:cy="115.80548"
       sodipodi:cx="190.66545"
       id="path3914-7"
       style="fill:#0000ff;fill-opacity:1;fill-rule:evenodd;stroke:none"
       sodipodi:type="arc" />
    <path
       transform="matrix(1.0555556,0,0,1.0555556,-5.76396,110.55565)"
       d="m 194.38777,115.80548 c 0,2.05578 -1.66654,3.72232 -3.72232,3.72232 -2.05578,0 -3.72232,-1.66654 -3.72232,-3.72232 0,-2.05578 1.66654,-3.72232 3.72232,-3.72232 2.05578,0 3.72232,1.66654 3.72232,3.72232 z"
       sodipodi:ry="3.7223191"
       sodipodi:rx="3.7223191"
       sodipodi:cy="115.80548"
       sodipodi:cx="190.66545"
       id="path3916-3"
       style="fill:#0000ff;fill-opacity:1;fill-rule:evenodd;stroke:none"
       sodipodi:type="arc" />
    <path
       sodipodi:type="arc"
       style="fill:#0000ff;fill-opacity:1;fill-rule:evenodd;stroke:none"
       id="path3918-3"
       sodipodi:cx="190.66545"
       sodipodi:cy="115.80548"
       sodipodi:rx="3.7223191"
       sodipodi:ry="3.7223191"
       d="m 194.38777,115.80548 c 0,2.05578 -1.66654,3.72232 -3.72232,3.72232 -2.05578,0 -3.72232,-1.66654 -3.72232,-3.72232 0,-2.05578 1.66654,-3.72232 3.72232,-3.72232 2.05578,0 3.72232,1.66654 3.72232,3.72232 z"
       transform="matrix(1.0555556,0,0,1.0555556,-5.76396,72.50528)" />
    <path
       transform="matrix(1.0555556,0,0,1.0555556,-6.17756,34.041328)"
       d="m 194.38777,115.80548 c 0,2.05578 -1.66654,3.72232 -3.72232,3.72232 -2.05578,0 -3.72232,-1.66654 -3.72232,-3.72232 0,-2.05578 1.66654,-3.72232 3.72232,-3.72232 2.05578,0 3.72232,1.66654 3.72232,3.72232 z"
       sodipodi:ry="3.7223191"
       sodipodi:rx="3.7223191"
       sodipodi:cy="115.80548"
       sodipodi:cx="190.66545"
       id="path3920-6"
       style="fill:#0000ff;fill-opacity:1;fill-rule:evenodd;stroke:none"
       sodipodi:type="arc" />
    <path
       sodipodi:type="arc"
       style="fill:#0000ff;fill-opacity:1;fill-rule:evenodd;stroke:none"
       id="path3922-4"
       sodipodi:cx="190.66545"
       sodipodi:cy="115.80548"
       sodipodi:rx="3.7223191"
       sodipodi:ry="3.7223191"
       d="m 194.38777,115.80548 c 0,2.05578 -1.66654,3.72232 -3.72232,3.72232 -2.05578,0 -3.72232,-1.66654 -3.72232,-3.72232 0,-2.05578 1.66654,-3.72232 3.72232,-3.72232 2.05578,0 3.72232,1.66654 3.72232,3.72232 z"
       transform="matrix(1.0555556,0,0,1.0555556,-6.17756,-3.173622)" />
    <path
       sodipodi:type="arc"
       style="fill:#0000ff;fill-opacity:1;fill-rule:evenodd;stroke:none"
       id="path3862-0-6"
       sodipodi:cx="190.66545"
       sodipodi:cy="115.80548"
       sodipodi:rx="3.7223191"
       sodipodi:ry="3.7223191"
       d="m 194.38777,115.80548 c 0,2.05578 -1.66654,3.72232 -3.72232,3.72232 -2.05578,0 -3.72232,-1.66654 -3.72232,-3.72232 0,-2.05578 1.66654,-3.72232 3.72232,-3.72232 2.05578,0 3.72232,1.66654 3.72232,3.72232 z"
       transform="matrix(1.0555556,0,0,1.0555556,186.14634,15.636535)" />
    <path
       sodipodi:type="arc"
       style="fill:#0000ff;fill-opacity:1;fill-rule:evenodd;stroke:none"
       id="path3862-4-2"
       sodipodi:cx="190.66545"
       sodipodi:cy="115.80548"
       sodipodi:rx="3.7223191"
       sodipodi:ry="3.7223191"
       d="m 194.38777,115.80548 c 0,2.05578 -1.66654,3.72232 -3.72232,3.72232 -2.05578,0 -3.72232,-1.66654 -3.72232,-3.72232 0,-2.05578 1.66654,-3.72232 3.72232,-3.72232 2.05578,0 3.72232,1.66654 3.72232,3.72232 z"
       transform="matrix(1.0555556,0,0,1.0555556,186.14634,90.9101)" />
    <path
       sodipodi:type="arc"
       style="fill:#0000ff;fill-opacity:1;fill-rule:evenodd;stroke:none"
       id="path3862-8-3"
       sodipodi:cx="190.66545"
       sodipodi:cy="115.80548"
       sodipodi:rx="3.7223191"
       sodipodi:ry="3.7223191"
       d="m 194.38777,115.80548 c 0,2.05578 -1.66654,3.72232 -3.72232,3.72232 -2.05578,0 -3.72232,-1.66654 -3.72232,-3.72232 0,-2.05578 1.66654,-3.72232 3.72232,-3.72232 2.05578,0 3.72232,1.66654 3.72232,3.72232 z"
       transform="matrix(1.0555556,0,0,1.0555556,263.07427,92.56446)" />
    <path
       sodipodi:type="arc"
       style="fill:#0000ff;fill-opacity:1;fill-rule:evenodd;stroke:none"
       id="path3862-9-6"
       sodipodi:cx="190.66545"
       sodipodi:cy="115.80548"
       sodipodi:rx="3.7223191"
       sodipodi:ry="3.7223191"
       d="m 194.38777,115.80548 c 0,2.05578 -1.66654,3.72232 -3.72232,3.72232 -2.05578,0 -3.72232,-1.66654 -3.72232,-3.72232 0,-2.05578 1.66654,-3.72232 3.72232,-3.72232 2.05578,0 3.72232,1.66654 3.72232,3.72232 z"
       transform="matrix(1.0555556,0,0,1.0555556,109.62027,72.2985)" />
    <path
       transform="matrix(1.0555556,0,0,1.0555556,-43.50858,110.24456)"
       d="m 194.38777,115.80548 c 0,2.05578 -1.66654,3.72232 -3.72232,3.72232 -2.05578,0 -3.72232,-1.66654 -3.72232,-3.72232 0,-2.05578 1.66654,-3.72232 3.72232,-3.72232 2.05578,0 3.72232,1.66654 3.72232,3.72232 z"
       sodipodi:ry="3.7223191"
       sodipodi:rx="3.7223191"
       sodipodi:cy="115.80548"
       sodipodi:cx="190.66545"
       id="path3916-7"
       style="fill:#0000ff;fill-opacity:1;fill-rule:evenodd;stroke:none"
       sodipodi:type="arc" />
    <path
       sodipodi:type="arc"
       style="fill:#0000ff;fill-opacity:1;fill-rule:evenodd;stroke:none"
       id="path3918-0"
       sodipodi:cx="190.66545"
       sodipodi:cy="115.80548"
       sodipodi:rx="3.7223191"
       sodipodi:ry="3.7223191"
       d="m 194.38777,115.80548 c 0,2.05578 -1.66654,3.72232 -3.72232,3.72232 -2.05578,0 -3.72232,-1.66654 -3.72232,-3.72232 0,-2.05578 1.66654,-3.72232 3.72232,-3.72232 2.05578,0 3.72232,1.66654 3.72232,3.72232 z"
       transform="matrix(1.0555556,0,0,1.0555556,-43.50858,72.19419)" />
    <path
       transform="matrix(1.0555556,0,0,1.0555556,-43.92217,33.730236)"
       d="m 194.38777,115.80548 c 0,2.05578 -1.66654,3.72232 -3.72232,3.72232 -2.05578,0 -3.72232,-1.66654 -3.72232,-3.72232 0,-2.05578 1.66654,-3.72232 3.72232,-3.72232 2.05578,0 3.72232,1.66654 3.72232,3.72232 z"
       sodipodi:ry="3.7223191"
       sodipodi:rx="3.7223191"
       sodipodi:cy="115.80548"
       sodipodi:cx="190.66545"
       id="path3920-3"
       style="fill:#0000ff;fill-opacity:1;fill-rule:evenodd;stroke:none"
       sodipodi:type="arc" />
    <path
       sodipodi:type="arc"
       style="fill:#0000ff;fill-opacity:1;fill-rule:evenodd;stroke:none"
       id="path3922-7"
       sodipodi:cx="190.66545"
       sodipodi:cy="115.80548"
       sodipodi:rx="3.7223191"
       sodipodi:ry="3.7223191"
       d="m 194.38777,115.80548 c 0,2.05578 -1.66654,3.72232 -3.72232,3.72232 -2.05578,0 -3.72232,-1.66654 -3.72232,-3.72232 0,-2.05578 1.66654,-3.72232 3.72232,-3.72232 2.05578,0 3.72232,1.66654 3.72232,3.72232 z"
       transform="matrix(1.0555556,0,0,1.0555556,-43.92217,-3.484712)" />
    <path
       sodipodi:type="arc"
       style="fill:#0000ff;fill-opacity:1;fill-rule:evenodd;stroke:none"
       id="path3866-2"
       sodipodi:cx="190.66545"
       sodipodi:cy="115.80548"
       sodipodi:rx="3.7223191"
       sodipodi:ry="3.7223191"
       d="m 194.38777,115.80548 c 0,2.05578 -1.66654,3.72232 -3.72232,3.72232 -2.05578,0 -3.72232,-1.66654 -3.72232,-3.72232 0,-2.05578 1.66654,-3.72232 3.72232,-3.72232 2.05578,0 3.72232,1.66654 3.72232,3.72232 z"
       transform="matrix(1.0555556,0,0,1.0555556,-43.53495,167.46894)" />
    <path
       transform="matrix(1.0555556,0,0,1.0555556,-43.67087,244.39687)"
       d="m 194.38777,115.80548 c 0,2.05578 -1.66654,3.72232 -3.72232,3.72232 -2.05578,0 -3.72232,-1.66654 -3.72232,-3.72232 0,-2.05578 1.66654,-3.72232 3.72232,-3.72232 2.05578,0 3.72232,1.66654 3.72232,3.72232 z"
       sodipodi:ry="3.7223191"
       sodipodi:rx="3.7223191"
       sodipodi:cy="115.80548"
       sodipodi:cx="190.66545"
       id="path3868-9"
       style="fill:#0000ff;fill-opacity:1;fill-rule:evenodd;stroke:none"
       sodipodi:type="arc" />
    <path
       transform="matrix(1.0555556,0,0,1.0555556,187.14827,284.14015)"
       d="m 194.38777,115.80548 c 0,2.05578 -1.66654,3.72232 -3.72232,3.72232 -2.05578,0 -3.72232,-1.66654 -3.72232,-3.72232 0,-2.05578 1.66654,-3.72232 3.72232,-3.72232 2.05578,0 3.72232,1.66654 3.72232,3.72232 z"
       sodipodi:ry="3.7223191"
       sodipodi:rx="3.7223191"
       sodipodi:cy="115.80548"
       sodipodi:cx="190.66545"
       id="path3860-3"
       style="fill:#00ff00;fill-opacity:1;fill-rule:evenodd;stroke:none"
       sodipodi:type="arc" />
    <path
       sodipodi:type="arc"
       style="fill:#00ff00;fill-opacity:1;fill-rule:evenodd;stroke:none"
       id="path3862-24"
       sodipodi:cx="190.66545"
       sodipodi:cy="115.80548"
       sodipodi:rx="3.7223191"
       sodipodi:ry="3.7223191"
       d="m 194.38777,115.80548 c 0,2.05578 -1.66654,3.72232 -3.72232,3.72232 -2.05578,0 -3.72232,-1.66654 -3.72232,-3.72232 0,-2.05578 1.66654,-3.72232 3.72232,-3.72232 2.05578,0 3.72232,1.66654 3.72232,3.72232 z"
       transform="matrix(1.0555556,0,0,1.0555556,225.61223,54.027132)" />
    <path
       transform="matrix(1.0555556,0,0,1.0555556,71.133068,207.46938)"
       d="m 194.38777,115.80548 c 0,2.05578 -1.66654,3.72232 -3.72232,3.72232 -2.05578,0 -3.72232,-1.66654 -3.72232,-3.72232 0,-2.05578 1.66654,-3.72232 3.72232,-3.72232 2.05578,0 3.72232,1.66654 3.72232,3.72232 z"
       sodipodi:ry="3.7223191"
       sodipodi:rx="3.7223191"
       sodipodi:cy="115.80548"
       sodipodi:cx="190.66545"
       id="path3864-2"
       style="fill:#00ff00;fill-opacity:1;fill-rule:evenodd;stroke:none"
       sodipodi:type="arc" />
    <path
       sodipodi:type="arc"
       style="fill:#00ff00;fill-opacity:1;fill-rule:evenodd;stroke:none"
       id="path3866-5"
       sodipodi:cx="190.66545"
       sodipodi:cy="115.80548"
       sodipodi:rx="3.7223191"
       sodipodi:ry="3.7223191"
       d="m 194.38777,115.80548 c 0,2.05578 -1.66654,3.72232 -3.72232,3.72232 -2.05578,0 -3.72232,-1.66654 -3.72232,-3.72232 0,-2.05578 1.66654,-3.72232 3.72232,-3.72232 2.05578,0 3.72232,1.66654 3.72232,3.72232 z"
       transform="matrix(1.0555556,0,0,1.0555556,-6.554092,207.46938)" />
    <path
       transform="matrix(1.0555556,0,0,1.0555556,-5.862822,284.39731)"
       d="m 194.38777,115.80548 c 0,2.05578 -1.66654,3.72232 -3.72232,3.72232 -2.05578,0 -3.72232,-1.66654 -3.72232,-3.72232 0,-2.05578 1.66654,-3.72232 3.72232,-3.72232 2.05578,0 3.72232,1.66654 3.72232,3.72232 z"
       sodipodi:ry="3.7223191"
       sodipodi:rx="3.7223191"
       sodipodi:cy="115.80548"
       sodipodi:cx="190.66545"
       id="path3868-8"
       style="fill:#00ff00;fill-opacity:1;fill-rule:evenodd;stroke:none"
       sodipodi:type="arc" />
    <path
       sodipodi:type="arc"
       style="fill:#00ff00;fill-opacity:1;fill-rule:evenodd;stroke:none"
       id="path3870-9"
       sodipodi:cx="190.66545"
       sodipodi:cy="115.80548"
       sodipodi:rx="3.7223191"
       sodipodi:ry="3.7223191"
       d="m 194.38777,115.80548 c 0,2.05578 -1.66654,3.72232 -3.72232,3.72232 -2.05578,0 -3.72232,-1.66654 -3.72232,-3.72232 0,-2.05578 1.66654,-3.72232 3.72232,-3.72232 2.05578,0 3.72232,1.66654 3.72232,3.72232 z"
       transform="matrix(1.0555556,0,0,1.0555556,70.583558,284.39731)" />
    <path
       transform="matrix(1.0555556,0,0,1.0555556,50.884668,-22.162624)"
       d="m 194.38777,115.80548 c 0,2.05578 -1.66654,3.72232 -3.72232,3.72232 -2.05578,0 -3.72232,-1.66654 -3.72232,-3.72232 0,-2.05578 1.66654,-3.72232 3.72232,-3.72232 2.05578,0 3.72232,1.66654 3.72232,3.72232 z"
       sodipodi:ry="3.7223191"
       sodipodi:rx="3.7223191"
       sodipodi:cy="115.80548"
       sodipodi:cx="190.66545"
       id="path3910-1"
       style="fill:#00ff00;fill-opacity:1;fill-rule:evenodd;stroke:none"
       sodipodi:type="arc" />
    <path
       sodipodi:type="arc"
       style="fill:#00ff00;fill-opacity:1;fill-rule:evenodd;stroke:none"
       id="path3912-52"
       sodipodi:cx="190.66545"
       sodipodi:cy="115.80548"
       sodipodi:rx="3.7223191"
       sodipodi:ry="3.7223191"
       d="m 194.38777,115.80548 c 0,2.05578 -1.66654,3.72232 -3.72232,3.72232 -2.05578,0 -3.72232,-1.66654 -3.72232,-3.72232 0,-2.05578 1.66654,-3.72232 3.72232,-3.72232 2.05578,0 3.72232,1.66654 3.72232,3.72232 z"
       transform="matrix(1.0555556,0,0,1.0555556,89.762218,-22.162634)" />
    <path
       sodipodi:type="arc"
       style="fill:#00ff00;fill-opacity:1;fill-rule:evenodd;stroke:none"
       id="path3922-9"
       sodipodi:cx="190.66545"
       sodipodi:cy="115.80548"
       sodipodi:rx="3.7223191"
       sodipodi:ry="3.7223191"
       d="m 194.38777,115.80548 c 0,2.05578 -1.66654,3.72232 -3.72232,3.72232 -2.05578,0 -3.72232,-1.66654 -3.72232,-3.72232 0,-2.05578 1.66654,-3.72232 3.72232,-3.72232 2.05578,0 3.72232,1.66654 3.72232,3.72232 z"
       transform="matrix(1.0555556,0,0,1.0555556,12.703098,-22.162624)" />
    <path
       sodipodi:type="arc"
       style="fill:#00ff00;fill-opacity:1;fill-rule:evenodd;stroke:none"
       id="path3862-0-10"
       sodipodi:cx="190.66545"
       sodipodi:cy="115.80548"
       sodipodi:rx="3.7223191"
       sodipodi:ry="3.7223191"
       d="m 194.38777,115.80548 c 0,2.05578 -1.66654,3.72232 -3.72232,3.72232 -2.05578,0 -3.72232,-1.66654 -3.72232,-3.72232 0,-2.05578 1.66654,-3.72232 3.72232,-3.72232 2.05578,0 3.72232,1.66654 3.72232,3.72232 z"
       transform="matrix(1.0555556,0,0,1.0555556,149.027,53.474717)" />
    <path
       sodipodi:type="arc"
       style="fill:#00ff00;fill-opacity:1;fill-rule:evenodd;stroke:none"
       id="path3862-4-5"
       sodipodi:cx="190.66545"
       sodipodi:cy="115.80548"
       sodipodi:rx="3.7223191"
       sodipodi:ry="3.7223191"
       d="m 194.38777,115.80548 c 0,2.05578 -1.66654,3.72232 -3.72232,3.72232 -2.05578,0 -3.72232,-1.66654 -3.72232,-3.72232 0,-2.05578 1.66654,-3.72232 3.72232,-3.72232 2.05578,0 3.72232,1.66654 3.72232,3.72232 z"
       transform="matrix(1.0555556,0,0,1.0555556,149.85418,131.64341)" />
    <path
       sodipodi:type="arc"
       style="fill:#00ff00;fill-opacity:1;fill-rule:evenodd;stroke:none"
       id="path3862-8-2"
       sodipodi:cx="190.66545"
       sodipodi:cy="115.80548"
       sodipodi:rx="3.7223191"
       sodipodi:ry="3.7223191"
       d="m 194.38777,115.80548 a 3.7223191,3.7223191 0 1 1 -7.44464,0 3.7223191,3.7223191 0 1 1 7.44464,0 z"
       transform="matrix(1.0555556,0,0,1.0555556,225.1957,130.33468)" />
    <path
       sodipodi:type="arc"
       style="fill:#00ff00;fill-opacity:1;fill-rule:evenodd;stroke:none"
       id="path3922-7-21"
       sodipodi:cx="190.66545"
       sodipodi:cy="115.80548"
       sodipodi:rx="3.7223191"
       sodipodi:ry="3.7223191"
       d="m 194.38777,115.80548 c 0,2.05578 -1.66654,3.72232 -3.72232,3.72232 -2.05578,0 -3.72232,-1.66654 -3.72232,-3.72232 0,-2.05578 1.66654,-3.72232 3.72232,-3.72232 2.05578,0 3.72232,1.66654 3.72232,3.72232 z"
       transform="matrix(1.0555556,0,0,1.0555556,-25.041512,-22.473714)" />
    <path
       transform="matrix(1.0555556,0,0,1.0555556,49.852438,15.98762)"
       d="m 194.38777,115.80548 c 0,2.05578 -1.66654,3.72232 -3.72232,3.72232 -2.05578,0 -3.72232,-1.66654 -3.72232,-3.72232 0,-2.05578 1.66654,-3.72232 3.72232,-3.72232 2.05578,0 3.72232,1.66654 3.72232,3.72232 z"
       sodipodi:ry="3.7223191"
       sodipodi:rx="3.7223191"
       sodipodi:cy="115.80548"
       sodipodi:cx="190.66545"
       id="path3910-3"
       style="fill:#00ff00;fill-opacity:1;fill-rule:evenodd;stroke:none"
       sodipodi:type="arc" />
    <path
       sodipodi:type="arc"
       style="fill:#00ff00;fill-opacity:1;fill-rule:evenodd;stroke:none"
       id="path3912-2"
       sodipodi:cx="190.66545"
       sodipodi:cy="115.80548"
       sodipodi:rx="3.7223191"
       sodipodi:ry="3.7223191"
       d="m 194.38777,115.80548 c 0,2.05578 -1.66654,3.72232 -3.72232,3.72232 -2.05578,0 -3.72232,-1.66654 -3.72232,-3.72232 0,-2.05578 1.66654,-3.72232 3.72232,-3.72232 2.05578,0 3.72232,1.66654 3.72232,3.72232 z"
       transform="matrix(1.0555556,0,0,1.0555556,88.729978,15.98761)" />
    <path
       sodipodi:type="arc"
       style="fill:#00ff00;fill-opacity:1;fill-rule:evenodd;stroke:none"
       id="path3922-2"
       sodipodi:cx="190.66545"
       sodipodi:cy="115.80548"
       sodipodi:rx="3.7223191"
       sodipodi:ry="3.7223191"
       d="m 194.38777,115.80548 c 0,2.05578 -1.66654,3.72232 -3.72232,3.72232 -2.05578,0 -3.72232,-1.66654 -3.72232,-3.72232 0,-2.05578 1.66654,-3.72232 3.72232,-3.72232 2.05578,0 3.72232,1.66654 3.72232,3.72232 z"
       transform="matrix(1.0555556,0,0,1.0555556,11.670868,15.98762)" />
    <path
       sodipodi:type="arc"
       style="fill:#00ff00;fill-opacity:1;fill-rule:evenodd;stroke:none"
       id="path3922-7-4"
       sodipodi:cx="190.66545"
       sodipodi:cy="115.80548"
       sodipodi:rx="3.7223191"
       sodipodi:ry="3.7223191"
       d="m 194.38777,115.80548 c 0,2.05578 -1.66654,3.72232 -3.72232,3.72232 -2.05578,0 -3.72232,-1.66654 -3.72232,-3.72232 0,-2.05578 1.66654,-3.72232 3.72232,-3.72232 2.05578,0 3.72232,1.66654 3.72232,3.72232 z"
       transform="matrix(1.0555556,0,0,1.0555556,-26.073742,15.67653)" />
    <path
       transform="matrix(1.0555556,0,0,1.0555556,50.977258,54.12353)"
       d="m 194.38777,115.80548 c 0,2.05578 -1.66654,3.72232 -3.72232,3.72232 -2.05578,0 -3.72232,-1.66654 -3.72232,-3.72232 0,-2.05578 1.66654,-3.72232 3.72232,-3.72232 2.05578,0 3.72232,1.66654 3.72232,3.72232 z"
       sodipodi:ry="3.7223191"
       sodipodi:rx="3.7223191"
       sodipodi:cy="115.80548"
       sodipodi:cx="190.66545"
       id="path3910-6"
       style="fill:#00ff00;fill-opacity:1;fill-rule:evenodd;stroke:none"
       sodipodi:type="arc" />
    <path
       sodipodi:type="arc"
       style="fill:#00ff00;fill-opacity:1;fill-rule:evenodd;stroke:none"
       id="path3912-5"
       sodipodi:cx="190.66545"
       sodipodi:cy="115.80548"
       sodipodi:rx="3.7223191"
       sodipodi:ry="3.7223191"
       d="m 194.38777,115.80548 c 0,2.05578 -1.66654,3.72232 -3.72232,3.72232 -2.05578,0 -3.72232,-1.66654 -3.72232,-3.72232 0,-2.05578 1.66654,-3.72232 3.72232,-3.72232 2.05578,0 3.72232,1.66654 3.72232,3.72232 z"
       transform="matrix(1.0555556,0,0,1.0555556,89.854808,54.12352)" />
    <path
       sodipodi:type="arc"
       style="fill:#00ff00;fill-opacity:1;fill-rule:evenodd;stroke:none"
       id="path3922-1"
       sodipodi:cx="190.66545"
       sodipodi:cy="115.80548"
       sodipodi:rx="3.7223191"
       sodipodi:ry="3.7223191"
       d="m 194.38777,115.80548 c 0,2.05578 -1.66654,3.72232 -3.72232,3.72232 -2.05578,0 -3.72232,-1.66654 -3.72232,-3.72232 0,-2.05578 1.66654,-3.72232 3.72232,-3.72232 2.05578,0 3.72232,1.66654 3.72232,3.72232 z"
       transform="matrix(1.0555556,0,0,1.0555556,12.795688,54.12353)" />
    <path
       sodipodi:type="arc"
       style="fill:#00ff00;fill-opacity:1;fill-rule:evenodd;stroke:none"
       id="path3922-7-2"
       sodipodi:cx="190.66545"
       sodipodi:cy="115.80548"
       sodipodi:rx="3.7223191"
       sodipodi:ry="3.7223191"
       d="m 194.38777,115.80548 c 0,2.05578 -1.66654,3.72232 -3.72232,3.72232 -2.05578,0 -3.72232,-1.66654 -3.72232,-3.72232 0,-2.05578 1.66654,-3.72232 3.72232,-3.72232 2.05578,0 3.72232,1.66654 3.72232,3.72232 z"
       transform="matrix(1.0555556,0,0,1.0555556,-24.948922,53.81244)" />
    <path
       transform="matrix(1.0555556,0,0,1.0555556,50.977258,92.12353)"
       d="m 194.38777,115.80548 c 0,2.05578 -1.66654,3.72232 -3.72232,3.72232 -2.05578,0 -3.72232,-1.66654 -3.72232,-3.72232 0,-2.05578 1.66654,-3.72232 3.72232,-3.72232 2.05578,0 3.72232,1.66654 3.72232,3.72232 z"
       sodipodi:ry="3.7223191"
       sodipodi:rx="3.7223191"
       sodipodi:cy="115.80548"
       sodipodi:cx="190.66545"
       id="path3910-5"
       style="fill:#00ff00;fill-opacity:1;fill-rule:evenodd;stroke:none"
       sodipodi:type="arc" />
    <path
       sodipodi:type="arc"
       style="fill:#00ff00;fill-opacity:1;fill-rule:evenodd;stroke:none"
       id="path3912-20"
       sodipodi:cx="190.66545"
       sodipodi:cy="115.80548"
       sodipodi:rx="3.7223191"
       sodipodi:ry="3.7223191"
       d="m 194.38777,115.80548 c 0,2.05578 -1.66654,3.72232 -3.72232,3.72232 -2.05578,0 -3.72232,-1.66654 -3.72232,-3.72232 0,-2.05578 1.66654,-3.72232 3.72232,-3.72232 2.05578,0 3.72232,1.66654 3.72232,3.72232 z"
       transform="matrix(1.0555556,0,0,1.0555556,89.854808,92.12352)" />
    <path
       sodipodi:type="arc"
       style="fill:#00ff00;fill-opacity:1;fill-rule:evenodd;stroke:none"
       id="path3922-5"
       sodipodi:cx="190.66545"
       sodipodi:cy="115.80548"
       sodipodi:rx="3.7223191"
       sodipodi:ry="3.7223191"
       d="m 194.38777,115.80548 c 0,2.05578 -1.66654,3.72232 -3.72232,3.72232 -2.05578,0 -3.72232,-1.66654 -3.72232,-3.72232 0,-2.05578 1.66654,-3.72232 3.72232,-3.72232 2.05578,0 3.72232,1.66654 3.72232,3.72232 z"
       transform="matrix(1.0555556,0,0,1.0555556,12.795688,92.12353)" />
    <path
       sodipodi:type="arc"
       style="fill:#00ff00;fill-opacity:1;fill-rule:evenodd;stroke:none"
       id="path3922-7-7"
       sodipodi:cx="190.66545"
       sodipodi:cy="115.80548"
       sodipodi:rx="3.7223191"
       sodipodi:ry="3.7223191"
       d="m 194.38777,115.80548 c 0,2.05578 -1.66654,3.72232 -3.72232,3.72232 -2.05578,0 -3.72232,-1.66654 -3.72232,-3.72232 0,-2.05578 1.66654,-3.72232 3.72232,-3.72232 2.05578,0 3.72232,1.66654 3.72232,3.72232 z"
       transform="matrix(1.0555556,0,0,1.0555556,-24.948922,91.81244)" />
    <path
       transform="matrix(1.0555556,0,0,1.0555556,50.218038,130.9507)"
       d="m 194.38777,115.80548 c 0,2.05578 -1.66654,3.72232 -3.72232,3.72232 -2.05578,0 -3.72232,-1.66654 -3.72232,-3.72232 0,-2.05578 1.66654,-3.72232 3.72232,-3.72232 2.05578,0 3.72232,1.66654 3.72232,3.72232 z"
       sodipodi:ry="3.7223191"
       sodipodi:rx="3.7223191"
       sodipodi:cy="115.80548"
       sodipodi:cx="190.66545"
       id="path3910-0"
       style="fill:#00ff00;fill-opacity:1;fill-rule:evenodd;stroke:none"
       sodipodi:type="arc" />
    <path
       sodipodi:type="arc"
       style="fill:#00ff00;fill-opacity:1;fill-rule:evenodd;stroke:none"
       id="path3912-6"
       sodipodi:cx="190.66545"
       sodipodi:cy="115.80548"
       sodipodi:rx="3.7223191"
       sodipodi:ry="3.7223191"
       d="m 194.38777,115.80548 c 0,2.05578 -1.66654,3.72232 -3.72232,3.72232 -2.05578,0 -3.72232,-1.66654 -3.72232,-3.72232 0,-2.05578 1.66654,-3.72232 3.72232,-3.72232 2.05578,0 3.72232,1.66654 3.72232,3.72232 z"
       transform="matrix(1.0555556,0,0,1.0555556,89.095588,130.95069)" />
    <path
       sodipodi:type="arc"
       style="fill:#00ff00;fill-opacity:1;fill-rule:evenodd;stroke:none"
       id="path3922-52"
       sodipodi:cx="190.66545"
       sodipodi:cy="115.80548"
       sodipodi:rx="3.7223191"
       sodipodi:ry="3.7223191"
       d="m 194.38777,115.80548 c 0,2.05578 -1.66654,3.72232 -3.72232,3.72232 -2.05578,0 -3.72232,-1.66654 -3.72232,-3.72232 0,-2.05578 1.66654,-3.72232 3.72232,-3.72232 2.05578,0 3.72232,1.66654 3.72232,3.72232 z"
       transform="matrix(1.0555556,0,0,1.0555556,12.036458,130.9507)" />
    <path
       sodipodi:type="arc"
       style="fill:#00ff00;fill-opacity:1;fill-rule:evenodd;stroke:none"
       id="path3922-7-5"
       sodipodi:cx="190.66545"
       sodipodi:cy="115.80548"
       sodipodi:rx="3.7223191"
       sodipodi:ry="3.7223191"
       d="m 194.38777,115.80548 c 0,2.05578 -1.66654,3.72232 -3.72232,3.72232 -2.05578,0 -3.72232,-1.66654 -3.72232,-3.72232 0,-2.05578 1.66654,-3.72232 3.72232,-3.72232 2.05578,0 3.72232,1.66654 3.72232,3.72232 z"
       transform="matrix(1.0555556,0,0,1.0555556,-25.708152,130.63961)" />
    <path
       sodipodi:type="arc"
       style="fill:#00ff00;fill-opacity:1;fill-rule:evenodd;stroke:none"
       id="path3862-9-7"
       sodipodi:cx="190.66545"
       sodipodi:cy="115.80548"
       sodipodi:rx="3.7223191"
       sodipodi:ry="3.7223191"
       d="m 194.38777,115.80548 c 0,2.05578 -1.66654,3.72232 -3.72232,3.72232 -2.05578,0 -3.72232,-1.66654 -3.72232,-3.72232 0,-2.05578 1.66654,-3.72232 3.72232,-3.72232 2.05578,0 3.72232,1.66654 3.72232,3.72232 z"
       transform="matrix(1.0555556,0,0,1.0555556,225.81636,-22.068654)" />
    <path
       sodipodi:type="arc"
       style="fill:#00ff00;fill-opacity:1;fill-rule:evenodd;stroke:none"
       id="path3862-0-1"
       sodipodi:cx="190.66545"
       sodipodi:cy="115.80548"
       sodipodi:rx="3.7223191"
       sodipodi:ry="3.7223191"
       d="m 194.38777,115.80548 c 0,2.05578 -1.66654,3.72232 -3.72232,3.72232 -2.05578,0 -3.72232,-1.66654 -3.72232,-3.72232 0,-2.05578 1.66654,-3.72232 3.72232,-3.72232 2.05578,0 3.72232,1.66654 3.72232,3.72232 z"
       transform="matrix(1.0555556,0,0,1.0555556,149.23113,-22.621074)" />
    <text
       xml:space="preserve"
       style="font-size:40px;font-style:normal;font-weight:normal;line-height:124.00000095%;letter-spacing:0px;word-spacing:0px;fill:#000000;fill-opacity:1;stroke:none;font-family:Bitstream Vera Sans"
       x="389.5885"
       y="323.72125"
       id="text5219"
       sodipodi:linespacing="124%"><tspan
         sodipodi:role="line"
         id="tspan5221"
         x="389.5885"
         y="323.72125"
         style="font-size:20px;line-height:124.00000095%">P</tspan></text>
    <text
       xml:space="preserve"
       style="font-size:20px;font-style:normal;font-weight:normal;line-height:125%;letter-spacing:0px;word-spacing:0px;fill:#000000;fill-opacity:1;stroke:none;font-family:Bitstream Vera Sans"
       x="313.90134"
       y="286.35629"
       id="text5223"
       sodipodi:linespacing="125%"><tspan
         sodipodi:role="line"
         id="tspan5225"
         x="313.90134"
         y="286.35629">u</tspan></text>
    <text
       xml:space="preserve"
       style="font-size:20px;font-style:normal;font-weight:normal;line-height:125%;letter-spacing:0px;word-spacing:0px;fill:#000000;fill-opacity:1;stroke:none;font-family:Bitstream Vera Sans"
       x="350.64297"
       y="247.89821"
       id="text5227"
       sodipodi:linespacing="125%"><tspan
         sodipodi:role="line"
         id="tspan5229"
         x="350.64297"
         y="247.89821">v</tspan></text>
  </g>
</svg>
