<?xml version="1.0" encoding="UTF-8" standalone="no"?>
<!-- Created with Inkscape (http://www.inkscape.org/) -->

<svg
   xmlns:dc="http://purl.org/dc/elements/1.1/"
   xmlns:cc="http://creativecommons.org/ns#"
   xmlns:rdf="http://www.w3.org/1999/02/22-rdf-syntax-ns#"
   xmlns:svg="http://www.w3.org/2000/svg"
   xmlns="http://www.w3.org/2000/svg"
   xmlns:sodipodi="http://sodipodi.sourceforge.net/DTD/sodipodi-0.dtd"
   xmlns:inkscape="http://www.inkscape.org/namespaces/inkscape"
   width="309.77969"
   height="309.77966"
   id="svg2"
   version="1.1"
   inkscape:version="0.48.3.1 r9886"
   sodipodi:docname="vel_u2_faceta.svg">
  <defs
     id="defs4" />
  <sodipodi:namedview
     id="base"
     pagecolor="#ffffff"
     bordercolor="#666666"
     borderopacity="1.0"
     inkscape:pageopacity="0.0"
     inkscape:pageshadow="2"
     inkscape:zoom="2.4178476"
     inkscape:cx="154.88985"
     inkscape:cy="154.88983"
     inkscape:document-units="px"
     inkscape:current-layer="layer1"
     showgrid="false"
     inkscape:window-width="1855"
     inkscape:window-height="1056"
     inkscape:window-x="65"
     inkscape:window-y="24"
     inkscape:window-maximized="1"
     fit-margin-top="0"
     fit-margin-left="0"
     fit-margin-right="0"
     fit-margin-bottom="0" />
  <metadata
     id="metadata7">
    <rdf:RDF>
      <cc:Work
         rdf:about="">
        <dc:format>image/svg+xml</dc:format>
        <dc:type
           rdf:resource="http://purl.org/dc/dcmitype/StillImage" />
        <dc:title />
      </cc:Work>
    </rdf:RDF>
  </metadata>
  <g
     inkscape:label="Layer 1"
     inkscape:groupmode="layer"
     id="layer1"
     transform="translate(-156.18727,-99.141339)">
    <rect
       style="fill:none;stroke:#000000;stroke-width:1.5;stroke-linecap:butt;stroke-linejoin:miter;stroke-miterlimit:4;stroke-opacity:1;stroke-dasharray:none"
       id="rect4099"
       width="307.32532"
       height="307.32532"
       x="157.22472"
       y="100.059" />
    <path
       style="fill:#00ff00;stroke:#000000;stroke-width:1.50000000000000000;stroke-linecap:butt;stroke-linejoin:miter;stroke-miterlimit:4;stroke-opacity:1;stroke-dasharray:none"
       d="m 310.88736,99.891339 0,308.279671"
       id="path4873"
       inkscape:connector-curvature="0" />
    <path
       inkscape:connector-curvature="0"
       id="path4883"
       d="m 156.93727,253.72166 308.27968,0"
       style="fill:none;stroke:#000000;stroke-width:1.5;stroke-linecap:butt;stroke-linejoin:miter;stroke-miterlimit:4;stroke-opacity:1;stroke-dasharray:none" />
    <path
       style="fill:#00ff00;stroke:#000000;stroke-width:1px;stroke-linecap:butt;stroke-linejoin:miter;stroke-opacity:1"
       d="m 387.41544,100.37386 0,153.74394"
       id="path4907"
       inkscape:connector-curvature="0" />
    <path
       inkscape:connector-curvature="0"
       id="path4921"
       d="m 310.54347,176.69806 153.74394,0"
       style="fill:#ff0000;stroke:#000000;stroke-width:1px;stroke-linecap:butt;stroke-linejoin:miter;stroke-opacity:1" />
    <path
       inkscape:connector-curvature="0"
       id="path4927"
       d="m 233.8109,253.35611 0,153.74394"
       style="fill:#00ff00;stroke:#000000;stroke-width:1px;stroke-linecap:butt;stroke-linejoin:miter;stroke-opacity:1" />
    <text
       xml:space="preserve"
       style="font-size:16px;font-style:normal;font-variant:normal;font-weight:normal;font-stretch:normal;line-height:125%;letter-spacing:0px;word-spacing:0px;fill:#000000;fill-opacity:1;stroke:none;font-family:Arial;-inkscape-font-specification:Arial"
       x="95.317375"
       y="245.53432"
       id="text5094"
       sodipodi:linespacing="125%"><tspan
         sodipodi:role="line"
         id="tspan5096"
         x="95.317375"
         y="245.53432" /></text>
    <text
       xml:space="preserve"
       style="font-size:10px;font-style:normal;font-variant:normal;font-weight:normal;font-stretch:normal;line-height:125%;letter-spacing:0px;word-spacing:0px;fill:#000000;fill-opacity:1;stroke:none;font-family:Arial;-inkscape-font-specification:Arial"
       x="133.18642"
       y="717.52026"
       id="text5270"
       sodipodi:linespacing="125%"><tspan
         sodipodi:role="line"
         id="tspan5272"
         x="133.18642"
         y="717.52026" /></text>
    <path
       style="fill:none;stroke:#000000;stroke-width:1px;stroke-linecap:butt;stroke-linejoin:miter;stroke-opacity:1"
       d="m 156.72254,330.22808 153.74394,0"
       id="path3068"
       inkscape:connector-curvature="0" />
    <path
       inkscape:connector-curvature="0"
       id="path3838"
       d="m 233.7654,100.14691 0,153.74394"
       style="fill:#00ff00;stroke:#000000;stroke-width:1px;stroke-linecap:butt;stroke-linejoin:miter;stroke-opacity:1" />
    <path
       style="fill:none;stroke:#000000;stroke-width:1px;stroke-linecap:butt;stroke-linejoin:miter;stroke-opacity:1"
       d="m 157.15456,176.62544 153.74394,0"
       id="path3840"
       inkscape:connector-curvature="0" />
    <path
       style="fill:#00ff00;stroke:#000000;stroke-width:1px;stroke-linecap:butt;stroke-linejoin:miter;stroke-opacity:1"
       d="m 194.73365,100.14691 0,153.74394"
       id="path3842"
       inkscape:connector-curvature="0" />
    <path
       inkscape:connector-curvature="0"
       id="path3844"
       d="m 271.66158,100.14691 0,153.74394"
       style="fill:#00ff00;stroke:#000000;stroke-width:1px;stroke-linecap:butt;stroke-linejoin:miter;stroke-opacity:1" />
    <path
       inkscape:connector-curvature="0"
       id="path3846"
       d="m 157.15456,138.26486 153.74394,0"
       style="fill:none;stroke:#000000;stroke-width:1px;stroke-linecap:butt;stroke-linejoin:miter;stroke-opacity:1" />
    <path
       style="fill:none;stroke:#000000;stroke-width:1px;stroke-linecap:butt;stroke-linejoin:miter;stroke-opacity:1"
       d="m 157.15456,214.986 153.74394,0"
       id="path3848"
       inkscape:connector-curvature="0" />
    <path
       transform="matrix(1.0555556,0,0,1.0555556,186.1296,284.09958)"
       d="m 194.38777,115.80548 c 0,2.05578 -1.66654,3.72232 -3.72232,3.72232 -2.05578,0 -3.72232,-1.66654 -3.72232,-3.72232 0,-2.05578 1.66654,-3.72232 3.72232,-3.72232 2.05578,0 3.72232,1.66654 3.72232,3.72232 z"
       sodipodi:ry="3.7223191"
       sodipodi:rx="3.7223191"
       sodipodi:cy="115.80548"
       sodipodi:cx="190.66545"
       id="path3860"
       style="fill:#00ff00;fill-opacity:1;fill-rule:evenodd;stroke:none"
       sodipodi:type="arc" />
    <path
       sodipodi:type="arc"
       style="fill:#00ff00;fill-opacity:1;fill-rule:evenodd;stroke:none"
       id="path3862"
       sodipodi:cx="190.66545"
       sodipodi:cy="115.80548"
       sodipodi:rx="3.7223191"
       sodipodi:ry="3.7223191"
       d="m 194.38777,115.80548 c 0,2.05578 -1.66654,3.72232 -3.72232,3.72232 -2.05578,0 -3.72232,-1.66654 -3.72232,-3.72232 0,-2.05578 1.66654,-3.72232 3.72232,-3.72232 2.05578,0 3.72232,1.66654 3.72232,3.72232 z"
       transform="matrix(1.0555556,0,0,1.0555556,224.59356,53.986554)" />
    <path
       transform="matrix(1.0555556,0,0,1.0555556,70.1144,207.42881)"
       d="m 194.38777,115.80548 c 0,2.05578 -1.66654,3.72232 -3.72232,3.72232 -2.05578,0 -3.72232,-1.66654 -3.72232,-3.72232 0,-2.05578 1.66654,-3.72232 3.72232,-3.72232 2.05578,0 3.72232,1.66654 3.72232,3.72232 z"
       sodipodi:ry="3.7223191"
       sodipodi:rx="3.7223191"
       sodipodi:cy="115.80548"
       sodipodi:cx="190.66545"
       id="path3864"
       style="fill:#00ff00;fill-opacity:1;fill-rule:evenodd;stroke:none"
       sodipodi:type="arc" />
    <path
       sodipodi:type="arc"
       style="fill:#00ff00;fill-opacity:1;fill-rule:evenodd;stroke:none"
       id="path3866"
       sodipodi:cx="190.66545"
       sodipodi:cy="115.80548"
       sodipodi:rx="3.7223191"
       sodipodi:ry="3.7223191"
       d="m 194.38777,115.80548 c 0,2.05578 -1.66654,3.72232 -3.72232,3.72232 -2.05578,0 -3.72232,-1.66654 -3.72232,-3.72232 0,-2.05578 1.66654,-3.72232 3.72232,-3.72232 2.05578,0 3.72232,1.66654 3.72232,3.72232 z"
       transform="matrix(1.0555556,0,0,1.0555556,-7.572759,207.42881)" />
    <path
       transform="matrix(1.0555556,0,0,1.0555556,-6.88149,284.35674)"
       d="m 194.38777,115.80548 c 0,2.05578 -1.66654,3.72232 -3.72232,3.72232 -2.05578,0 -3.72232,-1.66654 -3.72232,-3.72232 0,-2.05578 1.66654,-3.72232 3.72232,-3.72232 2.05578,0 3.72232,1.66654 3.72232,3.72232 z"
       sodipodi:ry="3.7223191"
       sodipodi:rx="3.7223191"
       sodipodi:cy="115.80548"
       sodipodi:cx="190.66545"
       id="path3868"
       style="fill:#00ff00;fill-opacity:1;fill-rule:evenodd;stroke:none"
       sodipodi:type="arc" />
    <path
       sodipodi:type="arc"
       style="fill:#00ff00;fill-opacity:1;fill-rule:evenodd;stroke:none"
       id="path3870"
       sodipodi:cx="190.66545"
       sodipodi:cy="115.80548"
       sodipodi:rx="3.7223191"
       sodipodi:ry="3.7223191"
       d="m 194.38777,115.80548 c 0,2.05578 -1.66654,3.72232 -3.72232,3.72232 -2.05578,0 -3.72232,-1.66654 -3.72232,-3.72232 0,-2.05578 1.66654,-3.72232 3.72232,-3.72232 2.05578,0 3.72232,1.66654 3.72232,3.72232 z"
       transform="matrix(1.0555556,0,0,1.0555556,69.56489,284.35674)" />
    <path
       transform="matrix(1.0555556,0,0,1.0555556,49.866004,-22.203203)"
       d="m 194.38777,115.80548 c 0,2.05578 -1.66654,3.72232 -3.72232,3.72232 -2.05578,0 -3.72232,-1.66654 -3.72232,-3.72232 0,-2.05578 1.66654,-3.72232 3.72232,-3.72232 2.05578,0 3.72232,1.66654 3.72232,3.72232 z"
       sodipodi:ry="3.7223191"
       sodipodi:rx="3.7223191"
       sodipodi:cy="115.80548"
       sodipodi:cx="190.66545"
       id="path3910"
       style="fill:#00ff00;fill-opacity:1;fill-rule:evenodd;stroke:none"
       sodipodi:type="arc" />
    <path
       sodipodi:type="arc"
       style="fill:#00ff00;fill-opacity:1;fill-rule:evenodd;stroke:none"
       id="path3912"
       sodipodi:cx="190.66545"
       sodipodi:cy="115.80548"
       sodipodi:rx="3.7223191"
       sodipodi:ry="3.7223191"
       d="m 194.38777,115.80548 c 0,2.05578 -1.66654,3.72232 -3.72232,3.72232 -2.05578,0 -3.72232,-1.66654 -3.72232,-3.72232 0,-2.05578 1.66654,-3.72232 3.72232,-3.72232 2.05578,0 3.72232,1.66654 3.72232,3.72232 z"
       transform="matrix(1.0555556,0,0,1.0555556,88.743546,-22.203207)" />
    <path
       sodipodi:type="arc"
       style="fill:#00ff00;fill-opacity:1;fill-rule:evenodd;stroke:none"
       id="path3922"
       sodipodi:cx="190.66545"
       sodipodi:cy="115.80548"
       sodipodi:rx="3.7223191"
       sodipodi:ry="3.7223191"
       d="m 194.38777,115.80548 c 0,2.05578 -1.66654,3.72232 -3.72232,3.72232 -2.05578,0 -3.72232,-1.66654 -3.72232,-3.72232 0,-2.05578 1.66654,-3.72232 3.72232,-3.72232 2.05578,0 3.72232,1.66654 3.72232,3.72232 z"
       transform="matrix(1.0555556,0,0,1.0555556,11.684429,-22.203203)" />
    <path
       sodipodi:type="arc"
       style="fill:#00ff00;fill-opacity:1;fill-rule:evenodd;stroke:none"
       id="path3862-0"
       sodipodi:cx="190.66545"
       sodipodi:cy="115.80548"
       sodipodi:rx="3.7223191"
       sodipodi:ry="3.7223191"
       d="m 194.38777,115.80548 c 0,2.05578 -1.66654,3.72232 -3.72232,3.72232 -2.05578,0 -3.72232,-1.66654 -3.72232,-3.72232 0,-2.05578 1.66654,-3.72232 3.72232,-3.72232 2.05578,0 3.72232,1.66654 3.72232,3.72232 z"
       transform="matrix(1.0555556,0,0,1.0555556,148.00833,53.434139)" />
    <path
       sodipodi:type="arc"
       style="fill:#00ff00;fill-opacity:1;fill-rule:evenodd;stroke:none"
       id="path3862-4"
       sodipodi:cx="190.66545"
       sodipodi:cy="115.80548"
       sodipodi:rx="3.7223191"
       sodipodi:ry="3.7223191"
       d="m 194.38777,115.80548 c 0,2.05578 -1.66654,3.72232 -3.72232,3.72232 -2.05578,0 -3.72232,-1.66654 -3.72232,-3.72232 0,-2.05578 1.66654,-3.72232 3.72232,-3.72232 2.05578,0 3.72232,1.66654 3.72232,3.72232 z"
       transform="matrix(1.0555556,0,0,1.0555556,148.83551,131.60284)" />
    <path
       sodipodi:type="arc"
       style="fill:#00ff00;fill-opacity:1;fill-rule:evenodd;stroke:none"
       id="path3862-8"
       sodipodi:cx="190.66545"
       sodipodi:cy="115.80548"
       sodipodi:rx="3.7223191"
       sodipodi:ry="3.7223191"
       d="m 194.38777,115.80548 c 0,2.05578 -1.66654,3.72232 -3.72232,3.72232 -2.05578,0 -3.72232,-1.66654 -3.72232,-3.72232 0,-2.05578 1.66654,-3.72232 3.72232,-3.72232 2.05578,0 3.72232,1.66654 3.72232,3.72232 z"
       transform="matrix(1.0555556,0,0,1.0555556,222.93626,130.29411)" />
    <path
       sodipodi:type="arc"
       style="fill:#00ff00;fill-opacity:1;fill-rule:evenodd;stroke:none"
       id="path3922-7"
       sodipodi:cx="190.66545"
       sodipodi:cy="115.80548"
       sodipodi:rx="3.7223191"
       sodipodi:ry="3.7223191"
       d="m 194.38777,115.80548 c 0,2.05578 -1.66654,3.72232 -3.72232,3.72232 -2.05578,0 -3.72232,-1.66654 -3.72232,-3.72232 0,-2.05578 1.66654,-3.72232 3.72232,-3.72232 2.05578,0 3.72232,1.66654 3.72232,3.72232 z"
       transform="matrix(1.0555556,0,0,1.0555556,-26.060181,-22.514294)" />
    <path
       transform="matrix(1.0555556,0,0,1.0555556,48.83377,15.947042)"
       d="m 194.38777,115.80548 c 0,2.05578 -1.66654,3.72232 -3.72232,3.72232 -2.05578,0 -3.72232,-1.66654 -3.72232,-3.72232 0,-2.05578 1.66654,-3.72232 3.72232,-3.72232 2.05578,0 3.72232,1.66654 3.72232,3.72232 z"
       sodipodi:ry="3.7223191"
       sodipodi:rx="3.7223191"
       sodipodi:cy="115.80548"
       sodipodi:cx="190.66545"
       id="path3910-3"
       style="fill:#00ff00;fill-opacity:1;fill-rule:evenodd;stroke:none"
       sodipodi:type="arc" />
    <path
       sodipodi:type="arc"
       style="fill:#00ff00;fill-opacity:1;fill-rule:evenodd;stroke:none"
       id="path3912-2"
       sodipodi:cx="190.66545"
       sodipodi:cy="115.80548"
       sodipodi:rx="3.7223191"
       sodipodi:ry="3.7223191"
       d="m 194.38777,115.80548 c 0,2.05578 -1.66654,3.72232 -3.72232,3.72232 -2.05578,0 -3.72232,-1.66654 -3.72232,-3.72232 0,-2.05578 1.66654,-3.72232 3.72232,-3.72232 2.05578,0 3.72232,1.66654 3.72232,3.72232 z"
       transform="matrix(1.0555556,0,0,1.0555556,87.71131,15.947032)" />
    <path
       sodipodi:type="arc"
       style="fill:#00ff00;fill-opacity:1;fill-rule:evenodd;stroke:none"
       id="path3922-2"
       sodipodi:cx="190.66545"
       sodipodi:cy="115.80548"
       sodipodi:rx="3.7223191"
       sodipodi:ry="3.7223191"
       d="m 194.38777,115.80548 c 0,2.05578 -1.66654,3.72232 -3.72232,3.72232 -2.05578,0 -3.72232,-1.66654 -3.72232,-3.72232 0,-2.05578 1.66654,-3.72232 3.72232,-3.72232 2.05578,0 3.72232,1.66654 3.72232,3.72232 z"
       transform="matrix(1.0555556,0,0,1.0555556,10.652198,15.947042)" />
    <path
       sodipodi:type="arc"
       style="fill:#00ff00;fill-opacity:1;fill-rule:evenodd;stroke:none"
       id="path3922-7-4"
       sodipodi:cx="190.66545"
       sodipodi:cy="115.80548"
       sodipodi:rx="3.7223191"
       sodipodi:ry="3.7223191"
       d="m 194.38777,115.80548 c 0,2.05578 -1.66654,3.72232 -3.72232,3.72232 -2.05578,0 -3.72232,-1.66654 -3.72232,-3.72232 0,-2.05578 1.66654,-3.72232 3.72232,-3.72232 2.05578,0 3.72232,1.66654 3.72232,3.72232 z"
       transform="matrix(1.0555556,0,0,1.0555556,-27.092412,15.635952)" />
    <path
       transform="matrix(1.0555556,0,0,1.0555556,49.958593,54.082952)"
       d="m 194.38777,115.80548 c 0,2.05578 -1.66654,3.72232 -3.72232,3.72232 -2.05578,0 -3.72232,-1.66654 -3.72232,-3.72232 0,-2.05578 1.66654,-3.72232 3.72232,-3.72232 2.05578,0 3.72232,1.66654 3.72232,3.72232 z"
       sodipodi:ry="3.7223191"
       sodipodi:rx="3.7223191"
       sodipodi:cy="115.80548"
       sodipodi:cx="190.66545"
       id="path3910-6"
       style="fill:#00ff00;fill-opacity:1;fill-rule:evenodd;stroke:none"
       sodipodi:type="arc" />
    <path
       sodipodi:type="arc"
       style="fill:#00ff00;fill-opacity:1;fill-rule:evenodd;stroke:none"
       id="path3912-5"
       sodipodi:cx="190.66545"
       sodipodi:cy="115.80548"
       sodipodi:rx="3.7223191"
       sodipodi:ry="3.7223191"
       d="m 194.38777,115.80548 c 0,2.05578 -1.66654,3.72232 -3.72232,3.72232 -2.05578,0 -3.72232,-1.66654 -3.72232,-3.72232 0,-2.05578 1.66654,-3.72232 3.72232,-3.72232 2.05578,0 3.72232,1.66654 3.72232,3.72232 z"
       transform="matrix(1.0555556,0,0,1.0555556,88.836139,54.082942)" />
    <path
       sodipodi:type="arc"
       style="fill:#00ff00;fill-opacity:1;fill-rule:evenodd;stroke:none"
       id="path3922-1"
       sodipodi:cx="190.66545"
       sodipodi:cy="115.80548"
       sodipodi:rx="3.7223191"
       sodipodi:ry="3.7223191"
       d="m 194.38777,115.80548 c 0,2.05578 -1.66654,3.72232 -3.72232,3.72232 -2.05578,0 -3.72232,-1.66654 -3.72232,-3.72232 0,-2.05578 1.66654,-3.72232 3.72232,-3.72232 2.05578,0 3.72232,1.66654 3.72232,3.72232 z"
       transform="matrix(1.0555556,0,0,1.0555556,11.77702,54.082952)" />
    <path
       sodipodi:type="arc"
       style="fill:#00ff00;fill-opacity:1;fill-rule:evenodd;stroke:none"
       id="path3922-7-2"
       sodipodi:cx="190.66545"
       sodipodi:cy="115.80548"
       sodipodi:rx="3.7223191"
       sodipodi:ry="3.7223191"
       d="m 194.38777,115.80548 c 0,2.05578 -1.66654,3.72232 -3.72232,3.72232 -2.05578,0 -3.72232,-1.66654 -3.72232,-3.72232 0,-2.05578 1.66654,-3.72232 3.72232,-3.72232 2.05578,0 3.72232,1.66654 3.72232,3.72232 z"
       transform="matrix(1.0555556,0,0,1.0555556,-25.96759,53.771862)" />
    <path
       transform="matrix(1.0555556,0,0,1.0555556,49.958593,92.082952)"
       d="m 194.38777,115.80548 c 0,2.05578 -1.66654,3.72232 -3.72232,3.72232 -2.05578,0 -3.72232,-1.66654 -3.72232,-3.72232 0,-2.05578 1.66654,-3.72232 3.72232,-3.72232 2.05578,0 3.72232,1.66654 3.72232,3.72232 z"
       sodipodi:ry="3.7223191"
       sodipodi:rx="3.7223191"
       sodipodi:cy="115.80548"
       sodipodi:cx="190.66545"
       id="path3910-5"
       style="fill:#00ff00;fill-opacity:1;fill-rule:evenodd;stroke:none"
       sodipodi:type="arc" />
    <path
       sodipodi:type="arc"
       style="fill:#00ff00;fill-opacity:1;fill-rule:evenodd;stroke:none"
       id="path3912-20"
       sodipodi:cx="190.66545"
       sodipodi:cy="115.80548"
       sodipodi:rx="3.7223191"
       sodipodi:ry="3.7223191"
       d="m 194.38777,115.80548 c 0,2.05578 -1.66654,3.72232 -3.72232,3.72232 -2.05578,0 -3.72232,-1.66654 -3.72232,-3.72232 0,-2.05578 1.66654,-3.72232 3.72232,-3.72232 2.05578,0 3.72232,1.66654 3.72232,3.72232 z"
       transform="matrix(1.0555556,0,0,1.0555556,88.836139,92.082942)" />
    <path
       sodipodi:type="arc"
       style="fill:#00ff00;fill-opacity:1;fill-rule:evenodd;stroke:none"
       id="path3922-5"
       sodipodi:cx="190.66545"
       sodipodi:cy="115.80548"
       sodipodi:rx="3.7223191"
       sodipodi:ry="3.7223191"
       d="m 194.38777,115.80548 c 0,2.05578 -1.66654,3.72232 -3.72232,3.72232 -2.05578,0 -3.72232,-1.66654 -3.72232,-3.72232 0,-2.05578 1.66654,-3.72232 3.72232,-3.72232 2.05578,0 3.72232,1.66654 3.72232,3.72232 z"
       transform="matrix(1.0555556,0,0,1.0555556,11.77702,92.082952)" />
    <path
       sodipodi:type="arc"
       style="fill:#00ff00;fill-opacity:1;fill-rule:evenodd;stroke:none"
       id="path3922-7-7"
       sodipodi:cx="190.66545"
       sodipodi:cy="115.80548"
       sodipodi:rx="3.7223191"
       sodipodi:ry="3.7223191"
       d="m 194.38777,115.80548 c 0,2.05578 -1.66654,3.72232 -3.72232,3.72232 -2.05578,0 -3.72232,-1.66654 -3.72232,-3.72232 0,-2.05578 1.66654,-3.72232 3.72232,-3.72232 2.05578,0 3.72232,1.66654 3.72232,3.72232 z"
       transform="matrix(1.0555556,0,0,1.0555556,-25.96759,91.771862)" />
    <path
       transform="matrix(1.0555556,0,0,1.0555556,49.199366,130.91013)"
       d="m 194.38777,115.80548 c 0,2.05578 -1.66654,3.72232 -3.72232,3.72232 -2.05578,0 -3.72232,-1.66654 -3.72232,-3.72232 0,-2.05578 1.66654,-3.72232 3.72232,-3.72232 2.05578,0 3.72232,1.66654 3.72232,3.72232 z"
       sodipodi:ry="3.7223191"
       sodipodi:rx="3.7223191"
       sodipodi:cy="115.80548"
       sodipodi:cx="190.66545"
       id="path3910-0"
       style="fill:#00ff00;fill-opacity:1;fill-rule:evenodd;stroke:none"
       sodipodi:type="arc" />
    <path
       sodipodi:type="arc"
       style="fill:#00ff00;fill-opacity:1;fill-rule:evenodd;stroke:none"
       id="path3912-6"
       sodipodi:cx="190.66545"
       sodipodi:cy="115.80548"
       sodipodi:rx="3.7223191"
       sodipodi:ry="3.7223191"
       d="m 194.38777,115.80548 c 0,2.05578 -1.66654,3.72232 -3.72232,3.72232 -2.05578,0 -3.72232,-1.66654 -3.72232,-3.72232 0,-2.05578 1.66654,-3.72232 3.72232,-3.72232 2.05578,0 3.72232,1.66654 3.72232,3.72232 z"
       transform="matrix(1.0555556,0,0,1.0555556,88.076912,130.91012)" />
    <path
       sodipodi:type="arc"
       style="fill:#00ff00;fill-opacity:1;fill-rule:evenodd;stroke:none"
       id="path3922-52"
       sodipodi:cx="190.66545"
       sodipodi:cy="115.80548"
       sodipodi:rx="3.7223191"
       sodipodi:ry="3.7223191"
       d="m 194.38777,115.80548 c 0,2.05578 -1.66654,3.72232 -3.72232,3.72232 -2.05578,0 -3.72232,-1.66654 -3.72232,-3.72232 0,-2.05578 1.66654,-3.72232 3.72232,-3.72232 2.05578,0 3.72232,1.66654 3.72232,3.72232 z"
       transform="matrix(1.0555556,0,0,1.0555556,11.017793,130.91013)" />
    <path
       sodipodi:type="arc"
       style="fill:#00ff00;fill-opacity:1;fill-rule:evenodd;stroke:none"
       id="path3922-7-5"
       sodipodi:cx="190.66545"
       sodipodi:cy="115.80548"
       sodipodi:rx="3.7223191"
       sodipodi:ry="3.7223191"
       d="m 194.38777,115.80548 c 0,2.05578 -1.66654,3.72232 -3.72232,3.72232 -2.05578,0 -3.72232,-1.66654 -3.72232,-3.72232 0,-2.05578 1.66654,-3.72232 3.72232,-3.72232 2.05578,0 3.72232,1.66654 3.72232,3.72232 z"
       transform="matrix(1.0555556,0,0,1.0555556,-26.726817,130.59904)" />
    <path
       sodipodi:type="arc"
       style="fill:#00ff00;fill-opacity:1;fill-rule:evenodd;stroke:none"
       id="path3862-9"
       sodipodi:cx="190.66545"
       sodipodi:cy="115.80548"
       sodipodi:rx="3.7223191"
       sodipodi:ry="3.7223191"
       d="m 194.38777,115.80548 c 0,2.05578 -1.66654,3.72232 -3.72232,3.72232 -2.05578,0 -3.72232,-1.66654 -3.72232,-3.72232 0,-2.05578 1.66654,-3.72232 3.72232,-3.72232 2.05578,0 3.72232,1.66654 3.72232,3.72232 z"
       transform="matrix(1.0555556,0,0,1.0555556,224.79769,-22.10923)" />
    <path
       sodipodi:type="arc"
       style="fill:#00ff00;fill-opacity:1;fill-rule:evenodd;stroke:none"
       id="path3862-0-1"
       sodipodi:cx="190.66545"
       sodipodi:cy="115.80548"
       sodipodi:rx="3.7223191"
       sodipodi:ry="3.7223191"
       d="m 194.38777,115.80548 c 0,2.05578 -1.66654,3.72232 -3.72232,3.72232 -2.05578,0 -3.72232,-1.66654 -3.72232,-3.72232 0,-2.05578 1.66654,-3.72232 3.72232,-3.72232 2.05578,0 3.72232,1.66654 3.72232,3.72232 z"
       transform="matrix(1.0555556,0,0,1.0555556,148.21246,-22.66165)" />
  </g>
</svg>
